<?xml version="1.0" standalone="no"?>
<!DOCTYPE svg PUBLIC "-//W3C//DTD SVG 1.1//EN" "http://www.w3.org/Graphics/SVG/1.1/DTD/svg11.dtd" >
<svg xmlns="http://www.w3.org/2000/svg">
<metadata></metadata>
<defs>
<font id="ersteblack" horiz-adv-x="737" >
<font-face units-per-em="2048" ascent="1536" descent="-512" />
<missing-glyph horiz-adv-x="425" />
<glyph unicode="&#xfb01;" horiz-adv-x="1253" d="M31 778v187l127 59v37q0 40 1 63t7.5 60.5t18 60t35 49.5t57 42t85 25.5t117.5 10.5q125 0 173 -36.5t48 -121.5v-88h-135q-34 0 -45.5 -14.5t-11.5 -50.5v-37h528q125 0 125 -121v-903h-348v778h-305v-778h-350v778h-127zM813 1096v135q0 121 121 121h227v-256h-348z " />
<glyph unicode="&#xfb02;" horiz-adv-x="1253" d="M31 778v187l127 59v37q0 40 1 63t7.5 60.5t18 60t35 49.5t57 42t85 25.5t117.5 10.5q122 0 171.5 -36.5t49.5 -121.5v-88h-135q-34 0 -45.5 -14.5t-11.5 -50.5v-37h172v-246h-172v-778h-350v778h-127zM813 0v1231q0 121 121 121h227v-1352h-348z" />
<glyph unicode="&#xfb03;" horiz-adv-x="1904" d="M31 778v187l127 59v37q0 40 1 63t7.5 60.5t18 60t35 49.5t57 42t85 25.5t117.5 10.5q125 0 173 -36.5t48 -121.5v-88h-135q-34 0 -45.5 -14.5t-11.5 -50.5v-37h305v37q0 30 0.5 48.5t3.5 48t9 48t17 43.5t27 41t40.5 33t56 26.5t74 16t94.5 6.5q125 0 173 -36.5 t48 -121.5v-88h-135q-34 0 -46 -15t-12 -50v-37h525q124 0 124 -121v-903h-348v778h-301v-778h-350v778h-305v-778h-350v778h-127zM1464 1096v135q0 121 121 121h227v-256h-348z" />
<glyph unicode="&#xfb04;" horiz-adv-x="1904" d="M31 778v187l127 59v37q0 40 1 63t7.5 60.5t18 60t35 49.5t57 42t85 25.5t117.5 10.5q125 0 173 -36.5t48 -121.5v-88h-135q-34 0 -45.5 -14.5t-11.5 -50.5v-37h305v37q0 57 2.5 89t19 80.5t48.5 74.5t95.5 46.5t154.5 20.5q125 0 174 -36.5t49 -121.5v-88h-135 q-34 0 -46 -15t-12 -50v-37h172v-246h-172v-778h-350v778h-305v-778h-350v778h-127zM1464 0v1231q0 121 121 121h227v-1352h-348z" />
<glyph horiz-adv-x="2048" />
<glyph horiz-adv-x="2048" />
<glyph unicode="&#xd;" horiz-adv-x="2048" />
<glyph unicode=" "  horiz-adv-x="425" />
<glyph unicode="&#x09;" horiz-adv-x="425" />
<glyph unicode="&#xa0;" horiz-adv-x="425" />
<glyph unicode="!" horiz-adv-x="499" d="M74 0v197q0 120 121 120h229v-317h-350zM74 403v918h229q121 0 121 -121v-797h-350z" />
<glyph unicode="&#x22;" horiz-adv-x="901" d="M76 1270q-3 28 5.5 34.5t27.5 6.5h251q9 0 13.5 -0.5t11.5 -4.5t6.5 -12.5t-0.5 -23.5l-41 -406h-231zM510 1270v23.5t7 12.5t11 4.5t13 0.5h252q10 0 14.5 -0.5t11.5 -4.5t6.5 -12.5t-0.5 -23.5l-43 -406h-231z" />
<glyph unicode="#" horiz-adv-x="1437" d="M43 0l211 371h-133v59q0 119 121 119h112l123 213h-258v59q0 119 121 119h233l152 258q30 54 68.5 83.5t109.5 29.5h66l-213 -371h243l152 258q30 54 68.5 83.5t109.5 29.5h66l-213 -371h135v-59q0 -119 -121 -119h-113l-125 -213h259v-60q0 -118 -121 -118h-234 l-149 -258q-32 -55 -70.5 -84t-107.5 -29h-66l211 371h-244l-149 -258q-32 -55 -70.5 -84t-107.5 -29h-66zM532 549h246l125 213h-246z" />
<glyph unicode="$" horiz-adv-x="1062" d="M47 166v125h391q46 0 72.5 1t56.5 5.5t45 13.5t25 24.5t10 39.5q0 31 -33 56t-85.5 45t-116.5 43t-128 58t-116.5 81t-85.5 120.5t-33 169.5q0 72 23.5 134t70 112t123 82.5t176.5 40.5v78q0 121 121 121h55v-199q173 -8 253.5 -46t80.5 -126v-125h-342 q-118 0 -155 -17.5t-37 -64.5q0 -28 25.5 -50t67.5 -37t96 -34t110 -39t110 -53.5t96 -75.5t67.5 -107.5t25.5 -146.5q0 -76 -20.5 -139.5t-65 -118.5t-124 -91t-188.5 -48v-82q0 -121 -118 -121h-58v197q-93 4 -162 14.5t-123 30.5t-82 52.5t-28 76.5z" />
<glyph unicode="%" horiz-adv-x="1394" d="M23 987q0 174 74 254t222 80q146 0 220.5 -80.5t74.5 -253.5t-74.5 -252.5t-220.5 -79.5q-148 0 -222 79.5t-74 252.5zM215 987q0 -94 26 -133t78 -39q50 0 76.5 39t26.5 133t-26.5 133t-76.5 39q-52 0 -78 -39t-26 -133zM225 0l678 1198q30 54 67.5 83.5t104.5 29.5h86 l-676 -1198q-32 -56 -69 -84.5t-105 -28.5h-86zM780 328q0 173 74.5 253.5t220.5 80.5q148 0 222.5 -80.5t74.5 -253.5t-74.5 -252.5t-222.5 -79.5q-146 0 -220.5 79.5t-74.5 252.5zM973 328q0 -94 26 -133t76 -39q52 0 78.5 39t26.5 133t-26.5 133t-78.5 39q-50 0 -76 -39 t-26 -133z" />
<glyph unicode="&#x26;" horiz-adv-x="1355" d="M55 328q0 120 56.5 210t156.5 164q-127 176 -127 322q0 68 26 128.5t78.5 110.5t142.5 79.5t208 29.5q211 0 324.5 -87t113.5 -230q0 -68 -22.5 -129t-65 -111.5t-88 -89t-106.5 -78.5q82 -79 188 -168q83 89 160 219l231 -166q-90 -145 -176 -237q88 -73 176 -152 l-162 -120q-42 -33 -94 -33q-82 0 -145 61l-43 39q-192 -100 -408 -100q-191 0 -307.5 92.5t-116.5 245.5zM395 352q0 -38 38 -62t97 -24q62 0 136 23q-150 139 -193 182q-78 -65 -78 -119zM489 1014q0 -55 60 -144q79 46 118.5 83.5t39.5 80.5q0 37 -28.5 59.5t-80.5 22.5 q-58 0 -83.5 -32t-25.5 -70z" />
<glyph unicode="'" horiz-adv-x="468" d="M76 1270q-3 28 5.5 34.5t27.5 6.5h251q9 0 13.5 -0.5t11.5 -4.5t6.5 -12.5t-0.5 -23.5l-41 -406h-231z" />
<glyph unicode="(" d="M88 655q0 191 31 340.5t84 246t128 159.5t157.5 89t179.5 26v-144q-39 0 -65 -8.5t-52 -34t-42 -74t-28.5 -127.5t-18 -196t-5.5 -277t5.5 -277t18.5 -195.5t28.5 -127t41.5 -74t52 -34t65 -8.5v-144q-97 0 -179.5 26t-157.5 88.5t-128 159t-84 246t-31 340.5z" />
<glyph unicode=")" d="M70 -61q39 0 65 8.5t52 34t41.5 74t28.5 127t18.5 195.5t5.5 277t-5.5 277t-18 196t-28.5 127.5t-42 74t-52 34t-65 8.5v144q97 0 179.5 -26t157.5 -89t127.5 -159.5t83.5 -246t31 -340.5t-31 -340.5t-83.5 -246t-127.5 -159t-157.5 -88.5t-179.5 -26v144z" />
<glyph unicode="*" horiz-adv-x="700" d="M46 1031q-5 13 3 26l35 112q3 9 5 12.5t7.5 8.5t15 3.5t23.5 -7.5l150 -74l-25 158q-4 19 1 28.5t11.5 11t18.5 1.5h121q12 0 17.5 -1.5t9.5 -11t1 -28.5l-24 -158l151 74q12 6 20.5 7.5t13.5 -4t6.5 -9t4.5 -13.5l41 -110q14 -36 -35 -43l-165 -23l122 -114 q13 -13 14.5 -23.5t-2.5 -15t-14 -11.5l-96 -69q-29 -25 -51 16l-76 141l-76 -143q-5 -9 -10 -14t-8 -7.5t-8.5 -1.5t-7.5 1.5t-9 4.5t-8 5l-98 65q-10 8 -13.5 12.5t-1 16t16.5 25.5l115 112l-164 23q-27 4 -32 17z" />
<glyph unicode="+" horiz-adv-x="811" d="M74 395v115q0 119 127 119h86v84q0 121 121 121h116v-205h213v-234h-213v-205h-237v205h-213z" />
<glyph unicode="," horiz-adv-x="499" d="M49 -162l45 395q3 25 17.5 38.5t35.5 13.5h279l-113 -408q-12 -39 -67 -39h-197z" />
<glyph unicode="-" d="M74 395v115q0 119 121 119h467v-234h-588z" />
<glyph unicode="." horiz-adv-x="499" d="M74 0v197q0 120 121 120h229v-317h-350z" />
<glyph unicode="/" horiz-adv-x="1011" d="M43 0l682 1198q30 54 68.5 83.5t109.5 29.5h66l-682 -1198q-30 -54 -69.5 -83.5t-108.5 -29.5h-66z" />
<glyph unicode="0" horiz-adv-x="1308" d="M66 655q0 344 150 505t439 161t438.5 -161t149.5 -505t-149.5 -504.5t-438.5 -160.5t-439 161t-150 504zM444 655q0 -137 24.5 -219t69.5 -115.5t117 -33.5q107 0 158 83t51 285t-51 285.5t-158 83.5q-108 0 -159.5 -83t-51.5 -286z" />
<glyph unicode="1" horiz-adv-x="856" d="M33 0v188q0 119 123 119h90v697h-213v188q0 119 123 119h458v-1004h207v-188q0 -119 -123 -119h-665z" />
<glyph unicode="2" horiz-adv-x="1099" d="M33 0v184q0 94 33 178.5t86 146t117 115.5t128 95.5t117 77.5t86 70t33 65q0 72 -117 72h-440v141q0 98 115.5 137t349.5 39q231 0 356 -106t125 -267q0 -71 -31 -137t-80.5 -117.5t-109.5 -98.5t-120.5 -86t-110 -73t-80.5 -67t-31 -62h596v-188q0 -119 -123 -119h-899z " />
<glyph unicode="3" horiz-adv-x="1120" d="M43 174v133h477q83 0 119.5 22t36.5 81q0 60 -37.5 86t-118.5 26h-327v287h286q83 0 118.5 19.5t35.5 76.5q0 59 -36 79t-120 20h-411v133q0 101 102.5 142.5t327.5 41.5q244 0 380 -91.5t136 -275.5q0 -109 -61 -186t-165 -100q269 -68 269 -310q0 -184 -140.5 -276 t-384.5 -92q-235 0 -361 43t-126 141z" />
<glyph unicode="4" horiz-adv-x="1110" d="M43 215v223q0 77 35 129l395 598q66 99 122.5 127.5t186.5 28.5h172l-497 -799h194l58 115q33 61 74.5 90t101.5 29h88v-234h94v-307h-94v-215h-369v215h-561z" />
<glyph unicode="5" horiz-adv-x="1120" d="M43 174v133h477q81 0 118.5 26t37.5 87q0 63 -39 98t-117 35h-444v758h880v-189q0 -118 -120 -118h-428v-160h108q98 0 179 -15t136 -39.5t96.5 -60.5t65 -72.5t38.5 -80.5t19.5 -80t4.5 -76q0 -114 -37.5 -198t-108 -134t-164.5 -74t-215 -24q-235 0 -361 43t-126 141z " />
<glyph unicode="6" horiz-adv-x="1247" d="M66 653q0 668 612 668q214 0 310.5 -42t96.5 -132v-143h-286q-69 0 -109 -1.5t-83 -8t-65.5 -18.5t-44 -33.5t-31.5 -53t-15 -76.5q77 14 213 14q142 0 244 -29t161 -84.5t86 -127.5t27 -166q0 -88 -30.5 -163.5t-92.5 -136t-168 -95.5t-246 -35q-288 0 -433.5 160 t-145.5 503zM444 584q0 -164 43 -228.5t148 -64.5q178 0 178 149q0 83 -49.5 113.5t-145.5 30.5h-174z" />
<glyph unicode="7" horiz-adv-x="1019" d="M23 1004v307h968v-226q0 -78 -37 -129l-280 -442q-69 -107 -86 -153.5t-17 -135.5v-225h-368v246q0 143 104 307l293 451h-577z" />
<glyph unicode="8" horiz-adv-x="1224" d="M63 358q0 242 267 310q-104 23 -164 99.5t-60 186.5q0 185 132 276t374 91t373 -91t131 -276q0 -111 -58.5 -187t-162.5 -99q264 -67 264 -310q0 -184 -146.5 -276t-400.5 -92q-259 0 -404 91.5t-145 276.5zM442 410q0 -63 39 -91t131 -28t130 28t38 91q0 62 -37 87 t-131 25q-95 0 -132.5 -25t-37.5 -87zM485 909q0 -47 31.5 -76.5t95.5 -29.5q63 0 94 29.5t31 76.5q0 105 -125 105q-127 0 -127 -105z" />
<glyph unicode="9" horiz-adv-x="1247" d="M66 891q0 88 30.5 163.5t92 136t167 95.5t244.5 35q289 0 435.5 -160.5t146.5 -503.5t-159 -505t-454 -162q-215 0 -312 42t-97 132v143h289q51 0 83 1t68 3.5t58 8t45.5 15.5t36.5 23.5t26 33.5t20 46t11 60q-83 -15 -215 -15q-142 0 -243.5 29t-160 84.5t-85.5 128 t-27 166.5zM434 870q0 -83 49 -113t146 -30h174q0 164 -43 228.5t-150 64.5q-176 0 -176 -150z" />
<glyph unicode=":" horiz-adv-x="499" d="M74 106v199q0 119 121 119h229v-318h-350zM74 580v198q0 121 121 121h229v-319h-350z" />
<glyph unicode=";" horiz-adv-x="499" d="M49 -162l45 395q3 25 17.5 38.5t35.5 13.5h279l-113 -408q-12 -39 -67 -39h-197zM76 580v198q0 121 121 121h229v-319h-350z" />
<glyph unicode="&#x3c;" d="M74 395v234l538 227q50 20 50 -16v-195l-320 -133l279 -119q2 -1 8 -3t7.5 -3t6 -3t6 -4t4.5 -5t4 -6l2.5 -7.5t2 -10.5t0.5 -13v-195z" />
<glyph unicode="=" d="M74 225v117q0 119 121 119h467v-236h-588zM74 563v117q0 119 121 119h467v-236h-588z" />
<glyph unicode="&#x3e;" d="M74 143v195q0 9 0.5 16t4 12t4.5 8t7 6.5t7 4.5t10 4.5t10 3.5l278 119l-321 133v195q0 36 49 16l539 -227v-234z" />
<glyph unicode="?" horiz-adv-x="995" d="M45 1020v125q0 99 107.5 137.5t339.5 38.5q116 0 203 -29.5t137.5 -81.5t75 -117.5t24.5 -144.5q0 -63 -20 -115t-52.5 -86.5t-71.5 -64.5t-78.5 -57.5t-72 -57.5t-52.5 -71.5t-20 -92.5h-350q0 81 20 146t52.5 107t71 75t77.5 56.5t71.5 45t52.5 48t20 57.5 q0 82 -117 82h-418zM215 0v197q0 120 121 120h229v-317h-350z" />
<glyph unicode="@" horiz-adv-x="1556" d="M96 553q0 132 37 242t101.5 187.5t151.5 131.5t186 79.5t206 25.5q109 0 205.5 -19t185 -64.5t151.5 -113.5t100.5 -172.5t37.5 -235.5q0 -59 -9 -114.5t-37 -118.5t-72.5 -109.5t-121.5 -77t-178 -30.5h-108l-62 78q-80 -88 -186 -88q-260 0 -260 376q0 375 260 375 q56 0 104.5 -25t81.5 -63v4q0 31 24 54.5t77 23.5h151v-551q71 0 113.5 71.5t42.5 194.5t-37 211t-106.5 137t-156.5 71t-200 22q-111 0 -200.5 -28.5t-158 -87.5t-106 -157t-37.5 -229q0 -105 24.5 -189.5t66.5 -142t100.5 -96.5t125 -56.5t142.5 -17.5h86v-164h-86 q-133 0 -247.5 41.5t-202.5 121.5t-138.5 209.5t-50.5 293.5zM682 530q0 -102 22.5 -145t83.5 -43q36 0 82 20v340q-55 19 -82 19q-61 0 -83.5 -45t-22.5 -146z" />
<glyph unicode="A" horiz-adv-x="1232" d="M20 0q0 18 7 53l309 1207q8 35 30.5 45t73.5 10h355q50 0 72 -10t30 -45l309 -1207q6 -27 6 -53h-299q-49 0 -66 8.5t-24 42.5l-57 240h-301l-55 -240q-9 -34 -26 -42.5t-65 -8.5h-299zM520 563h182l-88 373h-8z" />
<glyph unicode="B" horiz-adv-x="1222" d="M92 123v1065q0 123 125 123h420q498 0 498 -359q0 -110 -59.5 -185.5t-164.5 -98.5q267 -68 267 -310q0 -358 -498 -358h-463q-125 0 -125 123zM461 307h190q81 0 119.5 24.5t38.5 84.5q0 58 -38.5 82t-119.5 24h-190v-215zM461 809h149q84 0 120 19.5t36 76.5 q0 58 -37.5 78.5t-122.5 20.5h-145v-195z" />
<glyph unicode="C" horiz-adv-x="1079" d="M66 655q0 344 149 505t442 161q210 0 298.5 -42t88.5 -134v-141h-387q-68 0 -108 -14.5t-64.5 -56t-32.5 -105.5t-8 -173t8 -172.5t32.5 -105t64.5 -56t108 -14.5h387v-141q0 -92 -88.5 -134t-298.5 -42q-293 0 -442 160.5t-149 504.5z" />
<glyph unicode="D" horiz-adv-x="1314" d="M92 123v1065q0 123 125 123h442q289 0 439.5 -157t150.5 -499t-150.5 -498.5t-439.5 -156.5h-442q-125 0 -125 123zM461 307h188q54 0 92.5 15.5t68.5 53.5t45 107.5t15 171.5t-15 171.5t-45 108t-68.5 54t-92.5 15.5h-188v-697z" />
<glyph unicode="E" horiz-adv-x="1024" d="M92 123v1065q0 123 125 123h756v-185q0 -122 -127 -122h-385v-195h436v-287h-436v-215h522v-184q0 -123 -125 -123h-641q-125 0 -125 123z" />
<glyph unicode="F" horiz-adv-x="983" d="M92 0v1188q0 123 125 123h746v-185q0 -122 -127 -122h-375v-256h422v-287h-422v-461h-369z" />
<glyph unicode="G" horiz-adv-x="1161" d="M66 655q0 345 147 505.5t438 160.5q215 0 315.5 -43t100.5 -133v-141h-410q-68 0 -108 -14.5t-64.5 -56t-32.5 -105.5t-8 -173t8 -172.5t32.5 -105t64.5 -56t108 -14.5h64v225q0 123 125 123h244v-489q0 -176 -439 -176q-291 0 -438 160t-147 505z" />
<glyph unicode="H" horiz-adv-x="1290" d="M92 0v1188q0 123 125 123h244v-502h368v502h369v-1188q0 -123 -125 -123h-244v522h-368v-522h-369z" />
<glyph unicode="I" horiz-adv-x="552" d="M92 0v1188q0 123 125 123h244v-1311h-369z" />
<glyph unicode="J" horiz-adv-x="675" d="M20 145v162h138q32 0 44.5 16t12.5 52v813q0 123 123 123h246v-1010q0 -39 -1 -62.5t-7.5 -60.5t-18.5 -60t-35.5 -50t-57.5 -42t-86 -25.5t-118 -10.5q-125 0 -182.5 37t-57.5 118z" />
<glyph unicode="K" horiz-adv-x="1263" d="M92 0v1188q0 123 125 123h244v-594l317 528q27 42 46.5 54t54.5 12h344q0 -32 -17 -60l-372 -569l391 -623q18 -29 18 -59h-332q-54 0 -75.5 9.5t-47.5 51.5l-327 531v-592h-369z" />
<glyph unicode="L" horiz-adv-x="987" d="M92 123v1065q0 123 125 123h244v-1004h506v-184q0 -123 -125 -123h-625q-125 0 -125 123z" />
<glyph unicode="M" horiz-adv-x="1556" d="M92 0v1208q0 48 32 77.5t93 29.5h197q50 0 74.5 -11t43.5 -49l248 -483l236 483q21 39 44.5 49.5t74.5 10.5h202q62 0 94.5 -31t32.5 -86v-1198h-327v399q0 206 8 353h-10l-263 -539q-15 -34 -34 -44.5t-62 -10.5q-42 0 -61.5 11t-34.5 44l-258 539h-8q6 -147 6 -353 v-399h-328z" />
<glyph unicode="N" horiz-adv-x="1345" d="M92 0v1198q0 55 31.5 86t93.5 31h197q50 0 73 -11t45 -49l392 -696h10q-8 109 -8 361v391h327v-1209q0 -106 -114 -106h-205q-52 0 -74.5 10.5t-44.5 48.5l-393 697h-8q6 -147 6 -353v-399h-328z" />
<glyph unicode="O" horiz-adv-x="1310" d="M66 655q0 344 149.5 505t439.5 161q289 0 438.5 -161t149.5 -505t-149.5 -504.5t-438.5 -160.5q-290 0 -439.5 160.5t-149.5 504.5zM444 655q0 -203 50.5 -285.5t160.5 -82.5q108 0 158.5 82.5t50.5 285.5t-50.5 286t-158.5 83q-73 0 -118 -33.5t-69 -115.5t-24 -220z " />
<glyph unicode="P" horiz-adv-x="1198" d="M92 0v1190q0 121 121 121h459q231 0 363 -124.5t132 -330.5q0 -204 -131.5 -325t-363.5 -121h-211v-410h-369zM461 717h182q85 0 125.5 30t40.5 113q0 82 -41 113t-125 31h-182v-287z" />
<glyph unicode="Q" horiz-adv-x="1310" d="M66 655q0 344 150 505t439 161t438.5 -161t149.5 -505q0 -148 -51 -256.5t-131 -167.5h219q0 -128 -15.5 -189t-51 -82t-111.5 -21q-52 0 -203.5 21t-251.5 30q-288 0 -434.5 160.5t-146.5 504.5zM444 655q0 -203 50.5 -285.5t160.5 -82.5q108 0 158.5 82.5t50.5 285.5 t-50.5 286t-158.5 83q-73 0 -118 -33.5t-69 -115.5t-24 -220z" />
<glyph unicode="R" horiz-adv-x="1253" d="M92 0v1190q0 121 121 121h457q232 0 364.5 -121t132.5 -320q0 -130 -60.5 -227.5t-174.5 -153.5l270 -430q21 -38 21 -59h-338q-52 0 -74 9.5t-45 51.5l-209 369h-96v-430h-369zM461 735h180q82 0 125 31.5t43 103.5t-43 103t-125 31h-180v-269z" />
<glyph unicode="S" horiz-adv-x="1085" d="M55 164v143h461q123 0 123 72q0 29 -32 53t-83.5 44t-113.5 43t-124 59t-113.5 82.5t-83.5 121.5t-32 170q0 78 27 143.5t81 116.5t144 80t207 29q230 0 334 -37.5t104 -136.5v-143h-391q-68 0 -92.5 -15t-24.5 -47q0 -23 25 -42t66 -33.5t93 -34t107 -40.5t107 -56.5 t93 -78.5t66 -110t25 -148q0 -67 -16 -125t-53.5 -111.5t-96 -91t-148.5 -59.5t-204 -22q-455 0 -455 174z" />
<glyph unicode="T" horiz-adv-x="972" d="M20 1004v188q0 119 123 119h809v-189q0 -118 -125 -118h-157v-1004h-369v1004h-281z" />
<glyph unicode="U" horiz-adv-x="1304" d="M92 469v842h369v-842q0 -98 44 -135t152 -37q105 0 146 36.5t41 135.5v842h368v-842q0 -243 -137.5 -361t-417.5 -118q-565 0 -565 479z" />
<glyph unicode="V" horiz-adv-x="1232" d="M20 1311h302q49 0 66 -8.5t24 -42.5l204 -885h9l198 885q7 34 24 42.5t66 8.5h299q0 -24 -6 -54l-311 -1206q-10 -35 -32 -45t-72 -10h-349q-51 0 -73.5 10t-30.5 45l-311 1206q-7 31 -7 54z" />
<glyph unicode="W" horiz-adv-x="1826" d="M20 1311h299q49 0 66.5 -8.5t24.5 -42.5q15 -72 51 -246t61.5 -303t48.5 -262h9l149 811q6 34 23.5 42.5t66.5 8.5q23 0 73.5 1t76.5 1q61 0 90.5 -9.5t36.5 -43.5l151 -811h8q16 103 37.5 218.5t36.5 189t44.5 209.5t41.5 194q6 34 23.5 42.5t66.5 8.5h301q0 -27 -6 -54 l-278 -1206q-7 -34 -32 -44.5t-77 -10.5h-303q-51 0 -75.5 10.5t-30.5 44.5l-39 246l-56 348h-4q-17 -127 -32 -219t-23.5 -135t-23.5 -116t-25 -124q-6 -34 -30.5 -44.5t-76.5 -10.5h-284q-50 0 -75.5 10.5t-33.5 44.5l-274 1206q-7 31 -7 54z" />
<glyph unicode="X" horiz-adv-x="1304" d="M25 0q0 27 18 59l387 607l-373 585q-18 32 -18 60h346q33 0 51.5 -12.5t46.5 -53.5l185 -278l172 278q28 41 47 53.5t53 12.5h305q0 -33 -18 -60l-371 -557l401 -635q23 -35 23 -59h-330q-50 0 -71 9.5t-48 49.5l-204 316l-195 -316q-23 -39 -45.5 -49t-73.5 -10h-288z " />
<glyph unicode="Y" horiz-adv-x="1243" d="M20 1311h285q45 0 60 -7.5t28 -39.5l129 -283q15 -36 48.5 -112t52.5 -121h8q19 46 100 233l121 283q13 33 28 40t62 7h281q0 -37 -11 -62l-405 -850v-399h-369v399l-403 850q-15 30 -15 62z" />
<glyph unicode="Z" horiz-adv-x="1089" d="M35 0v211q0 72 41 121l534 672h-542v307h964v-226q0 -87 -35 -129l-524 -649h582v-307h-1020z" />
<glyph unicode="[" horiz-adv-x="755" d="M88 -84v1479q0 121 121 121h477v-78q0 -36 -20.5 -49t-63.5 -13h-145v-1442h229v-77q0 -36 -20.5 -49t-63.5 -13h-393q-121 0 -121 121z" />
<glyph unicode="\" horiz-adv-x="1011" d="M43 1311h66q69 0 108.5 -29.5t69.5 -83.5l682 -1198h-66q-71 0 -109.5 29.5t-68.5 83.5z" />
<glyph unicode="]" horiz-adv-x="755" d="M70 -66h231v1442h-147q-43 0 -63.5 13t-20.5 49v78h477q121 0 121 -121v-1479q0 -121 -121 -121h-393q-43 0 -63.5 13t-20.5 49v77z" />
<glyph unicode="^" horiz-adv-x="681" d="M49 1087q0 21 8 31l172 219q17 21 30 28t34 7h96q36 0 64 -35l170 -219q8 -10 8 -31h-139q-21 0 -33 6t-35 25l-82 70l-82 -70q-25 -20 -36.5 -25.5t-30.5 -5.5h-144z" />
<glyph unicode="_" horiz-adv-x="1124" d="M74 -119q0 119 121 119h852v-233h-973v114z" />
<glyph unicode="`" horiz-adv-x="503" d="M49 1358q0 14 25 14h137q21 0 33.5 -7t29.5 -28l172 -219q9 -11 9 -31h-144q-23 0 -35.5 5t-31.5 26l-172 203q-23 26 -23 37z" />
<glyph unicode="a" horiz-adv-x="1075" d="M55 287q0 91 42 157t122 106.5t181.5 62t234.5 28.5v39q0 59 -42.5 83.5t-125.5 24.5h-336v99q0 33 14 58t43.5 41t62 26t84.5 14.5t95.5 6t108.5 1.5q215 0 329.5 -87t114.5 -249v-698h-209q-74 0 -106.5 31.5t-32.5 74.5v7q-117 -123 -279 -123q-143 0 -222 79.5 t-79 217.5zM416 348q0 -92 108 -92q69 0 111 25v174q-120 0 -169.5 -24t-49.5 -83z" />
<glyph unicode="b" horiz-adv-x="1116" d="M92 0v1229q0 123 125 123h223v-441q45 52 113 87.5t145 35.5q361 0 361 -522t-361 -522q-77 0 -145 35.5t-113 87.5v-7q0 -42 -34.5 -74t-110.5 -32h-203zM440 281q64 -29 117 -29q84 0 113.5 59t29.5 201q0 143 -29.5 204.5t-113.5 61.5q-55 0 -117 -28v-469z" />
<glyph unicode="c" horiz-adv-x="952" d="M55 512q0 522 496 522q146 0 226 -17t109 -49.5t29 -90.5v-89h-323q-39 0 -64 -4.5t-49 -20.5t-36.5 -46t-20.5 -80.5t-8 -124.5t8 -124.5t20.5 -80.5t36.5 -46t49 -20.5t64 -4.5h323v-91q0 -57 -29 -89t-109 -49t-226 -17q-496 0 -496 522z" />
<glyph unicode="d" horiz-adv-x="1116" d="M55 512q0 522 363 522q78 0 145.5 -35.5t112.5 -87.5v334q0 43 33 75t108 32h207v-1352h-205q-76 0 -109.5 32t-33.5 74v7q-45 -52 -112.5 -87.5t-145.5 -35.5q-363 0 -363 522zM414 512q0 -143 30 -203.5t117 -60.5q53 0 115 28v469q-64 29 -115 29q-87 0 -117 -59.5 t-30 -202.5z" />
<glyph unicode="e" horiz-adv-x="1079" d="M55 512q0 112 26.5 203t83.5 164.5t157.5 114t238.5 40.5q217 0 340 -108t123 -308q0 -87 -10 -208h-600q0 -101 46 -137.5t142 -36.5h379v-93q0 -83 -96 -118t-334 -35q-134 0 -232.5 40.5t-154.5 113.5t-82.5 164.5t-26.5 203.5zM414 625h264q2 18 2 51q0 133 -117 133 q-74 0 -108.5 -42t-40.5 -142z" />
<glyph unicode="f" d="M31 778v187l127 59v37q0 40 1 63t7.5 60.5t18 60t35 49.5t57 42t85 25.5t117.5 10.5q125 0 173 -36.5t48 -121.5v-88h-135q-34 0 -45.5 -14.5t-11.5 -50.5v-37h172v-246h-172v-778h-350v778h-127z" />
<glyph unicode="g" horiz-adv-x="1116" d="M55 532q0 502 361 502q79 0 147 -35.5t113 -87.5v7q0 43 33 74.5t108 31.5h207v-948q0 -51 -11.5 -101t-44 -104.5t-82.5 -94.5t-134.5 -66.5t-192.5 -26.5q-164 0 -256 16.5t-128 49t-36 89.5v90h373q88 0 126 43t38 160v23q-44 -52 -112.5 -87.5t-147.5 -35.5 q-189 0 -275 129.5t-86 371.5zM414 532q0 -129 30 -181t117 -52q55 0 115 27v424q-62 28 -115 28q-86 0 -116.5 -58t-30.5 -188z" />
<glyph unicode="h" horiz-adv-x="1126" d="M92 0v1229q0 123 125 123h223v-441q59 64 124.5 93.5t156.5 29.5q82 0 144 -26.5t98 -74t53.5 -107t17.5 -130.5v-696h-348v676q0 61 -30.5 81.5t-88.5 20.5q-61 0 -127 -30v-748h-348z" />
<glyph unicode="i" horiz-adv-x="532" d="M92 0v1024h223q125 0 125 -121v-903h-348zM92 1096v135q0 121 121 121h227v-256h-348z" />
<glyph unicode="j" horiz-adv-x="532" d="M-102 -72h127q39 0 52 17.5t13 54.5v1024h229q121 0 121 -121v-909q0 -41 -1 -63.5t-7 -60t-17.5 -59.5t-35 -49.5t-57 -42.5t-85.5 -25.5t-118 -10.5q-122 0 -171.5 36t-49.5 119v90zM90 1096v135q0 121 121 121h229v-256h-350z" />
<glyph unicode="k" horiz-adv-x="1167" d="M92 0v1231q0 121 121 121h227v-803l275 409q30 44 51.5 55t73.5 11h286q0 -29 -20 -59l-315 -433l325 -473q21 -32 21 -59h-326q-51 0 -72.5 14.5t-54.5 67.5l-244 377v-459h-348z" />
<glyph unicode="l" horiz-adv-x="532" d="M92 0v1231q0 121 121 121h227v-1352h-348z" />
<glyph unicode="m" horiz-adv-x="1720" d="M92 0v1024h207q74 0 107.5 -32t33.5 -74v-7q59 64 124.5 93.5t156.5 29.5q190 0 268 -133q163 133 330 133q83 0 144.5 -26t96.5 -73t51.5 -105.5t16.5 -131.5v-698h-348v674q0 61 -29.5 82.5t-85.5 21.5q-51 0 -135 -30q4 -28 4 -54v-694h-348v674q0 61 -31 82.5 t-88 21.5q-61 0 -127 -30v-748h-348z" />
<glyph unicode="n" horiz-adv-x="1126" d="M92 0v1024h207q75 0 108 -30t33 -72v-11q59 64 124.5 93.5t156.5 29.5q82 0 144 -26.5t98 -74t53.5 -107t17.5 -130.5v-696h-348v676q0 61 -30.5 81.5t-88.5 20.5q-61 0 -127 -30v-748h-348z" />
<glyph unicode="o" horiz-adv-x="1105" d="M55 512q0 89 15.5 164.5t52 143t93 114t142 73.5t195.5 27q136 0 235 -40.5t154.5 -114t81 -164t25.5 -203.5t-25.5 -203.5t-81 -164t-154.5 -114t-235 -40.5q-110 0 -195.5 27t-142 73.5t-93 114t-52 143t-15.5 164.5zM414 512q0 -75 5 -123.5t19 -91t42.5 -62.5 t72.5 -20q43 0 71 20t42 62.5t19 91t5 123.5t-5 123.5t-19 91t-42 62.5t-71 20q-44 0 -72.5 -20t-42.5 -62.5t-19 -91t-5 -123.5z" />
<glyph unicode="p" horiz-adv-x="1116" d="M92 -307v1331h207q74 0 107.5 -32t33.5 -74v-7q45 52 113 87.5t145 35.5q361 0 361 -522t-361 -522q-77 0 -145 35.5t-113 87.5v-420h-348zM440 281q64 -29 117 -29q84 0 113.5 59t29.5 201q0 143 -29.5 204.5t-113.5 61.5q-55 0 -117 -28v-469z" />
<glyph unicode="q" horiz-adv-x="1116" d="M55 512q0 522 361 522q78 0 145.5 -35.5t114.5 -87.5v7q0 43 32.5 74.5t106.5 31.5h209v-1331h-348v420q-47 -52 -114.5 -87.5t-145.5 -35.5q-361 0 -361 522zM414 512q0 -142 29.5 -201t115.5 -59q53 0 117 29v469q-62 28 -117 28q-85 0 -115 -61.5t-30 -204.5z" />
<glyph unicode="r" horiz-adv-x="751" d="M92 0v1024h207q123 0 141 -133q86 143 224 143q30 0 48.5 -13.5t18.5 -37.5v-287h-47q-148 0 -244 -30v-666h-348z" />
<glyph unicode="s" horiz-adv-x="966" d="M55 119v117h406q50 0 71 10.5t21 32.5q0 19 -27 35.5t-70 32.5t-94.5 35t-103.5 48.5t-95 66.5t-70 95.5t-27 130.5q0 149 110.5 230t304.5 81q63 0 104.5 -1.5t89 -6t77 -14.5t56 -26t38.5 -40.5t12 -58.5v-99h-358q-74 0 -74 -38q0 -19 26.5 -35.5t69.5 -31t94.5 -32.5 t103.5 -46t95 -64.5t69.5 -95t26.5 -130.5q0 -69 -22 -124.5t-72 -102t-141.5 -72.5t-218.5 -26q-52 0 -78 0.5t-71.5 1.5t-69.5 4.5t-58.5 9.5t-53 15.5t-37 23t-26.5 32t-8 42.5z" />
<glyph unicode="t" horiz-adv-x="747" d="M31 778v187l127 59l137 164q32 37 51 49t55 12h107v-225h203v-246h-203v-475q0 -38 11.5 -54t45.5 -16h146v-86q0 -83 -52 -120t-178 -37q-66 0 -117.5 10.5t-85 25.5t-57.5 42t-36 50t-18.5 60t-7.5 61t-1 64v475h-127z" />
<glyph unicode="u" horiz-adv-x="1126" d="M92 328v696h348v-676q0 -60 32.5 -81t88.5 -21q57 0 123 30v748h350v-1024h-209q-75 0 -108 30t-33 72v11q-57 -64 -120.5 -93.5t-153.5 -29.5q-83 0 -145.5 26.5t-99.5 74t-55 107t-18 130.5z" />
<glyph unicode="v" horiz-adv-x="1140" d="M35 1024h282q49 0 66 -7t25 -40l155 -621h8l160 621q8 33 24.5 40t63.5 7h287q0 -33 -6 -53l-277 -926q-11 -34 -32.5 -41.5t-73.5 -7.5h-297q-28 0 -40.5 1t-28.5 5t-24.5 14.5t-13.5 28.5l-272 926q-6 23 -6 53z" />
<glyph unicode="w" horiz-adv-x="1683" d="M35 1024h282q49 0 66 -7t25 -40l143 -602h10l121 602q7 33 23.5 40t66.5 7h133q49 0 66 -7t24 -40l123 -602h10l146 602q8 33 24.5 40t65.5 7h285q0 -30 -7 -53l-274 -926q-10 -34 -32 -41.5t-76 -7.5h-213q-22 0 -32.5 0.5t-26 3t-23 7.5t-14.5 14.5t-11 23.5l-102 422 l-101 -422q-3 -12 -7.5 -20.5t-12.5 -14t-15 -8.5t-20.5 -4.5t-22.5 -1.5h-28h-213q-23 0 -33.5 0.5t-26 3t-23 7.5t-15 14.5t-11.5 23.5l-268 926q-6 20 -6 53z" />
<glyph unicode="x" horiz-adv-x="1146" d="M31 0q0 32 18 59l326 463l-312 443q-18 24 -18 59h317q34 0 53.5 -13t47.5 -53l123 -174l123 174q28 40 47.5 53t54.5 13h272q0 -29 -20 -59l-303 -414l336 -492q20 -30 20 -59h-303q-50 0 -70.5 10.5t-46.5 48.5l-143 207l-143 -207q-26 -39 -47 -49t-72 -10h-260z" />
<glyph unicode="y" horiz-adv-x="1126" d="M92 358v666h348v-645q0 -60 32.5 -81.5t88.5 -21.5q55 0 123 31v717h350v-948q0 -51 -11.5 -101t-43.5 -104.5t-81.5 -94.5t-133 -66.5t-191.5 -26.5q-165 0 -256.5 16.5t-127 49t-35.5 89.5v90h372q85 0 121.5 43t36.5 160v12q-57 -64 -120.5 -93.5t-153.5 -29.5 q-83 0 -145.5 26.5t-99.5 74t-55 107t-18 130.5z" />
<glyph unicode="z" horiz-adv-x="952" d="M31 0v135q0 68 39 119l407 534h-418v236h842v-147q0 -84 -37 -129l-395 -512h453v-236h-891z" />
<glyph unicode="{" horiz-adv-x="839" d="M70 586v139q102 64 102 135v533q0 123 119 123h479v-78q0 -36 -21 -49t-65 -13h-145v-497q0 -118 -117 -224q117 -106 117 -223v-498h145q44 0 65 -12.5t21 -48.5v-78h-479q-119 0 -119 123v533q0 71 -102 135z" />
<glyph unicode="|" horiz-adv-x="399" d="M74 -154v1497q0 121 121 121h129v-1497q0 -121 -121 -121h-129z" />
<glyph unicode="}" horiz-adv-x="839" d="M70 -127q0 36 20.5 48.5t63.5 12.5h147v498q0 116 115 223q-115 107 -115 224v497h-147q-43 0 -63.5 13t-20.5 49v78h477q121 0 121 -123v-533q0 -71 102 -135v-139q-102 -64 -102 -135v-533q0 -123 -121 -123h-477v78z" />
<glyph unicode="~" horiz-adv-x="712" d="M49 1100v108q0 65 26.5 97t96.5 32q52 0 170.5 -16t177.5 -16q84 0 142 32v-106q0 -65 -27 -98t-96 -33q-65 0 -187.5 17.5t-161.5 17.5q-80 0 -141 -35z" />
<glyph unicode="&#xa1;" horiz-adv-x="499" d="M80 -176v797h350v-918h-229q-121 0 -121 121zM80 707v317h350v-197q0 -120 -121 -120h-229z" />
<glyph unicode="&#xa2;" horiz-adv-x="944" d="M49 512q0 473 410 516v80q0 121 121 121h57v-197q159 -7 218.5 -43t59.5 -112v-86h-319q-39 0 -65 -5t-51.5 -21.5t-39.5 -46.5t-23 -81t-9 -125t9 -125t23 -81t39.5 -46.5t51.5 -21.5t65 -5h319v-88q0 -75 -59.5 -110.5t-218.5 -42.5v-76q0 -121 -121 -121h-57v201 q-410 43 -410 516z" />
<glyph unicode="&#xa3;" horiz-adv-x="1165" d="M74 0v193q0 118 125 118h34v256h-159v78q0 119 121 119h38v174q0 78 27.5 145.5t81.5 121.5t144.5 85t207.5 31q198 0 283.5 -38t85.5 -138v-125h-344q-117 0 -117 -82v-174h387v-78q0 -119 -121 -119h-266v-256h502v-192q0 -119 -123 -119h-907z" />
<glyph unicode="&#xa4;" horiz-adv-x="1263" d="M43 416v78q0 118 121 118h51q26 43 76 86h-248v78q0 119 121 119h545q32 19 32 47q0 32 -24.5 47t-91.5 15h-394v143q0 99 104.5 136.5t336.5 37.5q116 0 205.5 -29t143.5 -80t81.5 -116.5t27.5 -143.5q0 -21 -4 -57h95v-78q0 -119 -121 -119h-53q-39 -50 -93 -86h267 v-77q0 -119 -121 -119h-539q-14 -17 -14 -37q0 -72 123 -72h460v-143q0 -174 -454 -174q-141 0 -245 33t-161.5 91.5t-84.5 129t-27 155.5v17h-115z" />
<glyph unicode="&#xa5;" horiz-adv-x="1239" d="M61 1311h285q45 0 60 -7.5t28 -39.5l187 -394h8l176 394q13 32 28 39.5t60 7.5h285q0 -38 -7 -54l-358 -718h289v-78q0 -119 -119 -119h-180v-342h-367v342h-299v78q0 119 121 119h166l-356 718q-7 27 -7 54z" />
<glyph unicode="&#xa6;" horiz-adv-x="399" d="M74 -154v738h250v-617q0 -121 -121 -121h-129zM74 727v616q0 121 121 121h129v-737h-250z" />
<glyph unicode="&#xa7;" horiz-adv-x="958" d="M20 1010q0 149 111 230t305 81q63 0 105 -1.5t90 -6t78 -14.5t57 -26t39 -40.5t12 -58.5v-97h-364q-70 0 -70 -39q0 -19 27 -30.5t70 -19t94.5 -18t103.5 -34.5t95 -60t70 -101.5t27 -153.5h-264q0 42 -32.5 68t-84 38.5t-114 22t-125 25t-114 40t-84 74.5t-32.5 121z M49 119v114h404q96 0 96 43q0 16 -21 27.5t-55.5 17.5t-78.5 16t-90 22.5t-90 39t-78.5 62.5t-55.5 96t-21 137h285q0 -42 31 -68t80.5 -37.5t109.5 -19.5t120.5 -22t110 -37.5t80.5 -73t31 -121.5q0 -68 -23 -124t-73 -102.5t-141.5 -72.5t-218.5 -26q-52 0 -78 0.5 t-71.5 1.5t-69.5 4.5t-58.5 9.5t-53 15.5t-37 23t-26.5 32t-8 42.5z" />
<glyph unicode="&#xa8;" horiz-adv-x="823" d="M66 1096v135q0 121 120 121h166v-256h-286zM485 1096v135q0 121 119 121h170v-256h-289z" />
<glyph unicode="&#xa9;" horiz-adv-x="1472" d="M66 655q0 163 51 293t137 210t192.5 121.5t225.5 41.5h129q118 0 224.5 -41.5t193 -121.5t137.5 -210t51 -293t-51 -293t-137.5 -209.5t-193 -121t-224.5 -41.5h-129q-119 0 -225.5 41.5t-192.5 121t-137 209.5t-51 293zM154 655q0 -127 33 -229t85 -166.5t121.5 -108 t138.5 -61.5t140 -18h129q71 0 140 18t138 61.5t121 108t84.5 166.5t32.5 229t-32.5 229t-84.5 167t-121 108.5t-138 61.5t-140 18h-129q-71 0 -140 -18t-138.5 -61.5t-122 -108.5t-85 -167t-32.5 -229zM416 659q0 206 90 303t264 97q126 0 180 -26t54 -81v-84h-234 q-78 0 -102.5 -41t-24.5 -168q0 -126 24.5 -167t102.5 -41h234v-84q0 -55 -54 -81t-180 -26q-175 0 -264.5 96.5t-89.5 302.5z" />
<glyph unicode="&#xaa;" horiz-adv-x="643" d="M33 868q0 55 25 94.5t73 64t108.5 37t139.5 17.5v23q0 65 -100 65h-201v60q0 24 13.5 40.5t33.5 26t54.5 14.5t65 6t77.5 1q130 0 199 -52t69 -149v-420h-127q-43 0 -63.5 19t-20.5 45v4q-71 -74 -166 -74q-85 0 -132.5 47.5t-47.5 130.5zM250 905q0 -55 65 -55 q44 0 64 14v105q-70 0 -99.5 -14.5t-29.5 -49.5z" />
<glyph unicode="&#xab;" horiz-adv-x="1396" d="M74 395v234l538 309q15 10 32.5 8t17.5 -24v-195l-381 -213l340 -182q41 -21 41 -76v-186zM733 395v234l537 309q51 22 51 -16v-195l-383 -213l342 -182q41 -20 41 -76v-186z" />
<glyph unicode="&#xac;" horiz-adv-x="1685" d="M74 395v115q0 119 121 119h639v-404h-238v170h-522z" />
<glyph unicode="&#xad;" d="M74 395v115q0 119 121 119h467v-234h-588z" />
<glyph unicode="&#xae;" horiz-adv-x="1472" d="M66 655q0 163 51 293t137 210t192.5 121.5t225.5 41.5h129q118 0 224.5 -41.5t193 -121.5t137.5 -210t51 -293t-51 -293t-137.5 -209.5t-193 -121t-224.5 -41.5h-129q-119 0 -225.5 41.5t-192.5 121t-137 209.5t-51 293zM154 655q0 -127 33 -229t85 -166.5t121.5 -108 t138.5 -61.5t140 -18h129q71 0 140 18t138 61.5t121 108t84.5 166.5t32.5 229t-32.5 229t-84.5 167t-121 108.5t-138 61.5t-140 18h-129q-71 0 -140 -18t-138.5 -61.5t-122 -108.5t-85 -167t-32.5 -229zM428 266v715q0 72 74 72h274q139 0 218 -72.5t79 -192.5 q0 -160 -139 -229l160 -258q12 -20 12 -35h-201q-32 0 -46 6t-28 31l-122 221h-58v-258h-223zM651 707h109q100 0 100 81q0 80 -100 80h-109v-161z" />
<glyph unicode="&#xaf;" horiz-adv-x="1124" d="M74 1024v115q0 118 121 118h852v-233h-973z" />
<glyph unicode="&#xb0;" horiz-adv-x="661" d="M33 1044q0 136 68 204.5t229 68.5q163 0 231 -68.5t68 -204.5t-68 -204t-231 -68q-161 0 -229 68.5t-68 203.5zM250 1044q0 -84 14.5 -110.5t65.5 -26.5q53 0 67.5 26.5t14.5 110.5t-14.5 111t-67.5 27q-51 0 -65.5 -27t-14.5 -111z" />
<glyph unicode="&#xb1;" horiz-adv-x="811" d="M74 43v115q0 118 121 118h542v-233h-663zM74 563v117q0 119 127 119h86v86q0 119 121 119h116v-205h213v-236h-213v-205h-237v205h-213z" />
<glyph unicode="&#xb2;" horiz-adv-x="520" d="M10 864v99q0 54 21 101.5t52.5 79.5t68 61.5t68 49t52.5 39t21 35.5q0 35 -49 35h-211v68q0 54 53 74t174 20q115 0 173.5 -54.5t58.5 -138.5q0 -48 -26 -91.5t-62.5 -73.5t-73 -55t-62.5 -46t-26 -37h266v-104q0 -62 -64 -62h-434z" />
<glyph unicode="&#xb3;" horiz-adv-x="532" d="M10 958v62h246q72 0 72 47q0 26 -17 36.5t-55 10.5h-170v156h147q38 0 56 9.5t18 33.5q0 51 -74 51h-213v61q0 54 54 77.5t170 23.5q254 0 254 -187q0 -54 -30 -92.5t-81 -50.5q133 -31 133 -152q0 -184 -260 -184q-250 0 -250 98z" />
<glyph unicode="&#xb4;" horiz-adv-x="503" d="M49 1087q0 21 8 31l172 219q17 21 30 28t34 7h137q25 0 25 -14q0 -11 -23 -37l-172 -203q-19 -21 -31.5 -26t-35.5 -5h-144z" />
<glyph unicode="&#xb6;" horiz-adv-x="1128" d="M49 856q0 205 133 330t365 125h551v-21q0 -36 -21 -48.5t-65 -12.5v-1229h-84v1229h-90v-1229h-291v401q-231 0 -364.5 125.5t-133.5 329.5z" />
<glyph unicode="&#xb7;" horiz-adv-x="499" d="M74 352v199q0 121 121 121h229v-320h-350z" />
<glyph unicode="&#xb8;" horiz-adv-x="432" d="M49 -197h68q33 0 46 8.5t13 28.5t-13 27.5t-50 7.5h-31v143h117v-61h4q94 0 136 -37t42 -86q0 -58 -51.5 -99.5t-136.5 -41.5q-69 0 -106.5 11.5t-37.5 47.5v51z" />
<glyph unicode="&#xb9;" horiz-adv-x="425" d="M10 864v105q0 61 66 61h37v324h-103v104q0 62 66 62h235v-490h103v-104q0 -62 -64 -62h-340z" />
<glyph unicode="&#xba;" horiz-adv-x="661" d="M33 1004q0 67 15.5 121.5t49 99t92.5 68.5t140 24q159 0 229 -85.5t70 -227.5t-70 -228t-229 -86q-81 0 -140 24.5t-92.5 68.5t-49 99t-15.5 122zM250 1004q0 -92 15.5 -135.5t64.5 -43.5q50 0 66 43.5t16 135.5t-16 135t-66 43q-49 0 -64.5 -43t-15.5 -135z" />
<glyph unicode="&#xbb;" horiz-adv-x="1398" d="M100 70v186q0 53 39 76l342 182l-381 213v195q0 22 17.5 24t32.5 -8l536 -309v-234zM709 70v186q0 55 43 76l340 182l-383 213v195q0 22 17.5 24t31.5 -8l538 -309v-234z" />
<glyph unicode="&#xbc;" horiz-adv-x="1312" d="M10 659v105q0 61 66 61h37v324h-103v104q0 62 66 62h235v-490h103v-104q0 -62 -64 -62h-340zM211 0l678 1198q30 54 67.5 83.5t104.5 29.5h86l-678 -1198q-30 -54 -67.5 -83.5t-104.5 -29.5h-86zM768 100v123q0 43 18 66l199 293q20 29 32.5 43t33.5 25.5t47 11.5h141 l-246 -394h82l29 49q22 33 42.5 47.5t51.5 14.5h45v-111h47v-168h-47v-100h-196v100h-279z" />
<glyph unicode="&#xbd;" horiz-adv-x="1359" d="M10 659v105q0 61 66 61h37v324h-103v104q0 62 66 62h235v-490h103v-104q0 -62 -64 -62h-340zM211 0l678 1198q30 54 67.5 83.5t104.5 29.5h86l-678 -1198q-30 -54 -67.5 -83.5t-104.5 -29.5h-86zM850 0v98q0 64 29 118.5t71 90t83.5 64t70.5 52.5t29 42q0 35 -50 35h-211 v67q0 54 54 74.5t174 20.5q115 0 173 -54.5t58 -138.5q0 -40 -18.5 -77.5t-46.5 -64.5t-60 -52t-60 -42.5t-46.5 -35.5t-18.5 -31h267v-105q0 -61 -64 -61h-434z" />
<glyph unicode="&#xbe;" horiz-adv-x="1378" d="M10 754v61h246q72 0 72 47q0 26 -17 36.5t-55 10.5h-170v156h147q38 0 56 9.5t18 33.5q0 51 -74 51h-213v62q0 54 53.5 77t170.5 23q254 0 254 -186q0 -54 -30 -93t-81 -51q133 -31 133 -151q0 -94 -68 -139.5t-192 -45.5q-250 0 -250 99zM276 0l678 1198 q30 54 67.5 83.5t104.5 29.5h86l-677 -1198q-30 -54 -68 -83.5t-105 -29.5h-86zM836 100v123q0 43 18 66l199 293q21 29 32.5 43t32.5 25.5t47 11.5h142l-246 -394h82l28 49q21 32 42.5 47t52.5 15h45v-111h47v-168h-47v-100h-197v100h-278z" />
<glyph unicode="&#xbf;" horiz-adv-x="995" d="M51 76q0 63 20 115t52.5 86.5t71.5 64.5t78.5 57.5t72 57.5t52.5 71.5t20 92.5h350q0 -81 -20 -146t-52.5 -107t-71 -75t-77.5 -56.5t-71.5 -45t-52.5 -48t-20 -57.5q0 -82 117 -82h418v-125q0 -99 -107 -137.5t-339 -38.5q-116 0 -203 29.5t-138 81.5t-75.5 117.5 t-24.5 144.5zM418 707v317h350v-197q0 -120 -121 -120h-229z" />
<glyph unicode="&#xc0;" horiz-adv-x="1232" d="M20 0q0 18 7 53l309 1207q8 35 30.5 45t73.5 10h355q50 0 72 -10t30 -45l309 -1207q6 -27 6 -53h-299q-49 0 -66 8.5t-24 42.5l-57 240h-301l-55 -240q-9 -34 -26 -42.5t-65 -8.5h-299zM301 1645q0 14 25 14h137q21 0 33.5 -7t29.5 -28l172 -219q9 -11 9 -31h-144 q-23 0 -35.5 5t-31.5 26l-172 203q-23 26 -23 37zM520 563h182l-88 373h-8z" />
<glyph unicode="&#xc1;" horiz-adv-x="1232" d="M20 0q0 18 7 53l309 1207q8 35 30.5 45t73.5 10h355q50 0 72 -10t30 -45l309 -1207q6 -27 6 -53h-299q-49 0 -66 8.5t-24 42.5l-57 240h-301l-55 -240q-9 -34 -26 -42.5t-65 -8.5h-299zM520 563h182l-88 373h-8zM520 1374q0 21 8 31l172 219q17 21 30 28t34 7h137 q25 0 25 -14q0 -11 -23 -37l-172 -203q-19 -21 -31 -26t-36 -5h-144z" />
<glyph unicode="&#xc2;" horiz-adv-x="1232" d="M20 0q0 18 7 53l309 1207q8 35 30.5 45t73.5 10h355q50 0 72 -10t30 -45l309 -1207q6 -27 6 -53h-299q-49 0 -66 8.5t-24 42.5l-57 240h-301l-55 -240q-9 -34 -26 -42.5t-65 -8.5h-299zM322 1374q0 21 8 31l172 219q17 21 29.5 28t33.5 7h97q20 0 33 -7t30 -28l170 -219 q8 -10 8 -31h-139q-21 0 -33 6t-35 25l-82 70l-82 -70q-25 -20 -36.5 -25.5t-30.5 -5.5h-143zM520 563h182l-88 373h-8z" />
<glyph unicode="&#xc3;" horiz-adv-x="1232" d="M20 0q0 18 7 53l309 1207q8 35 30.5 45t73.5 10h355q50 0 72 -10t30 -45l309 -1207q6 -27 6 -53h-299q-49 0 -66 8.5t-24 42.5l-57 240h-301l-55 -240q-9 -34 -26 -42.5t-65 -8.5h-299zM313 1386v109q0 65 26.5 97t96.5 32q52 0 170.5 -16.5t177.5 -16.5q83 0 142 33 v-106q0 -65 -27 -98.5t-96 -33.5q-65 0 -187 17.5t-161 17.5q-81 0 -142 -35zM520 563h182l-88 373h-8z" />
<glyph unicode="&#xc4;" horiz-adv-x="1232" d="M20 0q0 18 7 53l309 1207q8 35 30.5 45t73.5 10h355q50 0 72 -10t30 -45l309 -1207q6 -27 6 -53h-299q-49 0 -66 8.5t-24 42.5l-57 240h-301l-55 -240q-9 -34 -26 -42.5t-65 -8.5h-299zM272 1382v136q0 120 121 120h166v-256h-287zM520 563h182l-88 373h-8zM692 1382v136 q0 120 119 120h170v-256h-289z" />
<glyph unicode="&#xc5;" horiz-adv-x="1232" d="M20 0q0 18 7 53l309 1207q8 35 30.5 45t73.5 10h355q50 0 72 -10t30 -45l309 -1207q6 -27 6 -53h-299q-49 0 -66 8.5t-24 42.5l-57 240h-301l-55 -240q-9 -34 -26 -42.5t-65 -8.5h-299zM422 1518q0 161 201 161q198 0 198 -161q0 -164 -198 -164q-201 0 -201 164z M520 563h182l-88 373h-8zM569 1518q0 -40 11 -56t43 -16q31 0 41 16t10 56t-10 54.5t-41 14.5q-33 0 -43.5 -14.5t-10.5 -54.5z" />
<glyph unicode="&#xc6;" horiz-adv-x="1705" d="M20 0q0 18 7 53l307 1202q9 35 31 45.5t73 10.5h1215v-185q0 -122 -125 -122h-383v-195h434v-287h-434v-215h520v-184q0 -123 -127 -123h-637q-125 0 -125 123v168h-311l-55 -240q-7 -34 -24.5 -42.5t-66.5 -8.5h-299zM518 563h258v441h-155z" />
<glyph unicode="&#xc7;" horiz-adv-x="1079" d="M66 655q0 344 150 505t441 161q212 0 299.5 -42t87.5 -134v-141h-387q-68 0 -108 -14.5t-64.5 -56t-32.5 -105.5t-8 -173t8 -172.5t32.5 -105t64.5 -56t108 -14.5h387v-141q0 -89 -81.5 -131t-276.5 -45v-33h4q93 0 134.5 -36.5t41.5 -86.5q0 -58 -51 -99.5t-137 -41.5 q-67 0 -104 11.5t-37 47.5v51h67q33 0 45.5 8t12.5 29q0 20 -12.5 27.5t-49.5 7.5h-31v119q-249 24 -376 184.5t-127 476.5z" />
<glyph unicode="&#xc8;" horiz-adv-x="1024" d="M92 123v1065q0 123 125 123h756v-185q0 -122 -127 -122h-385v-195h436v-287h-436v-215h522v-184q0 -123 -125 -123h-641q-125 0 -125 123zM223 1645q0 14 25 14h137q21 0 34 -7t30 -28l172 -219q8 -10 8 -31h-144q-23 0 -35.5 5t-31.5 26l-172 203q-23 26 -23 37z" />
<glyph unicode="&#xc9;" horiz-adv-x="1024" d="M92 123v1065q0 123 125 123h756v-185q0 -122 -127 -122h-385v-195h436v-287h-436v-215h522v-184q0 -123 -125 -123h-641q-125 0 -125 123zM426 1374q0 21 8 31l172 219q17 21 30 28t34 7h137q24 0 24 -14q0 -13 -22 -37l-172 -203q-13 -15 -24.5 -22t-19 -8t-24.5 -1 h-143z" />
<glyph unicode="&#xca;" horiz-adv-x="1024" d="M92 123v1065q0 123 125 123h756v-185q0 -122 -127 -122h-385v-195h436v-287h-436v-215h522v-184q0 -123 -125 -123h-641q-125 0 -125 123zM225 1374q0 21 8 31l173 219q17 21 29.5 28t33.5 7h96q36 0 64 -35l170 -219q8 -10 8 -31h-139q-21 0 -33 6t-35 25l-82 70 l-82 -70q-25 -20 -36.5 -25.5t-30.5 -5.5h-144z" />
<glyph unicode="&#xcb;" horiz-adv-x="1024" d="M92 123v1065q0 123 125 123h756v-185q0 -122 -127 -122h-385v-195h436v-287h-436v-215h522v-184q0 -123 -125 -123h-641q-125 0 -125 123zM172 1382v136q0 120 121 120h166v-256h-287zM592 1382v136q0 120 119 120h170v-256h-289z" />
<glyph unicode="&#xcc;" horiz-adv-x="552" d="M-37 1645q0 14 25 14h137q21 0 33.5 -7t29.5 -28l172 -219q9 -11 9 -31h-144q-23 0 -35.5 5t-31.5 26l-172 203q-23 26 -23 37zM92 0v1188q0 123 125 123h244v-1311h-369z" />
<glyph unicode="&#xcd;" horiz-adv-x="552" d="M92 0v1188q0 123 125 123h244v-1311h-369zM182 1374q0 21 8 31l172 219q17 21 30 28t34 7h137q25 0 25 -14q0 -11 -23 -37l-172 -203q-19 -21 -31 -26t-36 -5h-144z" />
<glyph unicode="&#xce;" horiz-adv-x="552" d="M-33 1374q0 21 8 31l172 219q17 21 30 28t34 7h96q36 0 64 -35l170 -219q8 -10 8 -31h-139q-21 0 -33 6t-35 25l-82 70l-82 -70q-25 -20 -36.5 -25.5t-30.5 -5.5h-144zM92 0v1188q0 123 125 123h244v-1311h-369z" />
<glyph unicode="&#xcf;" horiz-adv-x="552" d="M-88 1382v136q0 120 121 120h166v-256h-287zM92 0v1188q0 123 125 123h244v-1311h-369zM332 1382v136q0 120 119 120h170v-256h-289z" />
<glyph unicode="&#xd0;" horiz-adv-x="1376" d="M0 543v102q0 60 32.5 91.5t94.5 31.5h27v422q0 121 118 121h449q289 0 439.5 -157t150.5 -499t-150.5 -498.5t-439.5 -156.5h-449q-118 0 -118 121v422h-154zM522 307h189q74 0 120 28t73.5 106t27.5 214q0 103 -14.5 172t-44.5 107.5t-68.5 54t-93.5 15.5h-189v-236h152 v-113q0 -112 -125 -112h-27v-236z" />
<glyph unicode="&#xd1;" horiz-adv-x="1345" d="M92 0v1198q0 55 31.5 86t93.5 31h197q50 0 73 -11t45 -49l392 -696h10q-8 109 -8 361v391h327v-1209q0 -106 -114 -106h-205q-52 0 -74.5 10.5t-44.5 48.5l-393 697h-8q6 -147 6 -353v-399h-328zM350 1386v109q0 65 26.5 97t96.5 32q52 0 170.5 -16.5t177.5 -16.5 q83 0 142 33v-106q0 -65 -27 -98.5t-96 -33.5q-65 0 -187 17.5t-161 17.5q-81 0 -142 -35z" />
<glyph unicode="&#xd2;" horiz-adv-x="1310" d="M66 655q0 344 149.5 505t439.5 161q289 0 438.5 -161t149.5 -505t-149.5 -504.5t-438.5 -160.5q-290 0 -439.5 160.5t-149.5 504.5zM313 1645q0 14 25 14h137q21 0 34 -7t30 -28l172 -219q8 -10 8 -31h-144q-23 0 -35.5 5t-31.5 26l-172 203q-23 26 -23 37zM444 655 q0 -203 50.5 -285.5t160.5 -82.5q108 0 158.5 82.5t50.5 285.5t-50.5 286t-158.5 83q-73 0 -118 -33.5t-69 -115.5t-24 -220z" />
<glyph unicode="&#xd3;" horiz-adv-x="1310" d="M66 655q0 344 149.5 505t439.5 161q289 0 438.5 -161t149.5 -505t-149.5 -504.5t-438.5 -160.5q-290 0 -439.5 160.5t-149.5 504.5zM444 655q0 -203 50.5 -285.5t160.5 -82.5q108 0 158.5 82.5t50.5 285.5t-50.5 286t-158.5 83q-73 0 -118 -33.5t-69 -115.5t-24 -220z M530 1374q0 20 9 31l172 219q17 21 29.5 28t33.5 7h137q25 0 25 -14q0 -11 -23 -37l-172 -203q-19 -21 -31 -26t-36 -5h-144z" />
<glyph unicode="&#xd4;" horiz-adv-x="1310" d="M66 655q0 344 149.5 505t439.5 161q289 0 438.5 -161t149.5 -505t-149.5 -504.5t-438.5 -160.5q-290 0 -439.5 160.5t-149.5 504.5zM338 1374q0 21 8 31l172 219q17 21 30 28t34 7h96q20 0 33 -7t30 -28l170 -219q9 -11 9 -31h-140q-21 0 -32.5 5.5t-34.5 25.5l-82 70 l-82 -70q-24 -20 -36 -25.5t-32 -5.5h-143zM444 655q0 -203 50.5 -285.5t160.5 -82.5q108 0 158.5 82.5t50.5 285.5t-50.5 286t-158.5 83q-73 0 -118 -33.5t-69 -115.5t-24 -220z" />
<glyph unicode="&#xd5;" horiz-adv-x="1310" d="M66 655q0 344 149.5 505t439.5 161q289 0 438.5 -161t149.5 -505t-149.5 -504.5t-438.5 -160.5q-290 0 -439.5 160.5t-149.5 504.5zM324 1386v109q0 65 26.5 97t95.5 32q52 0 171 -16.5t178 -16.5q82 0 141 33v-106q0 -65 -27 -98.5t-96 -33.5q-65 0 -187 17.5t-161 17.5 q-80 0 -141 -35zM444 655q0 -203 50.5 -285.5t160.5 -82.5q108 0 158.5 82.5t50.5 285.5t-50.5 286t-158.5 83q-73 0 -118 -33.5t-69 -115.5t-24 -220z" />
<glyph unicode="&#xd6;" horiz-adv-x="1310" d="M66 655q0 344 149.5 505t439.5 161q289 0 438.5 -161t149.5 -505t-149.5 -504.5t-438.5 -160.5q-290 0 -439.5 160.5t-149.5 504.5zM285 1382v136q0 120 121 120h165v-256h-286zM444 655q0 -203 50.5 -285.5t160.5 -82.5q108 0 158.5 82.5t50.5 285.5t-50.5 286 t-158.5 83q-73 0 -118 -33.5t-69 -115.5t-24 -220zM705 1382v136q0 120 118 120h170v-256h-288z" />
<glyph unicode="&#xd7;" horiz-adv-x="778" d="M119 268q-84 84 0 168l82 76l-82 76q-82 82 0 168l80 84l168 -162l168 162l165 -166l-165 -162l165 -160l-165 -166l-168 160l-168 -160z" />
<glyph unicode="&#xd8;" horiz-adv-x="1310" d="M66 655q0 344 150 505t439 161t439.5 -161.5t150.5 -504.5t-150.5 -504t-439.5 -161t-439 161t-150 504zM444 655q0 -151 35 -225l281 569q-40 25 -105 25q-73 0 -118 -33.5t-69 -115.5t-24 -220zM545 317q46 -30 114 -30q108 0 157.5 82.5t49.5 285.5q0 164 -37 248z " />
<glyph unicode="&#xd9;" horiz-adv-x="1304" d="M92 469v842h369v-842q0 -98 44 -135t152 -37q105 0 146 36.5t41 135.5v842h368v-842q0 -243 -137.5 -361t-417.5 -118q-565 0 -565 479zM319 1645q0 14 25 14h137q21 0 34 -7t30 -28l172 -219q8 -10 8 -31h-143q-17 0 -24.5 1t-19 8t-24.5 22l-172 203q-23 26 -23 37z " />
<glyph unicode="&#xda;" horiz-adv-x="1304" d="M92 469v842h369v-842q0 -98 44 -135t152 -37q105 0 146 36.5t41 135.5v842h368v-842q0 -243 -137.5 -361t-417.5 -118q-565 0 -565 479zM545 1374q0 21 8 31l172 219q17 21 29.5 28t33.5 7h138q24 0 24 -14q0 -13 -22 -37l-172 -203q-13 -15 -24.5 -22t-19 -8t-24.5 -1 h-143z" />
<glyph unicode="&#xdb;" horiz-adv-x="1304" d="M92 469v842h369v-842q0 -98 44 -135t152 -37q105 0 146 36.5t41 135.5v842h368v-842q0 -243 -137.5 -361t-417.5 -118q-565 0 -565 479zM344 1374q0 21 8 31l172 219q17 21 30 28t34 7h96q36 0 64 -35l170 -219q8 -10 8 -31h-140q-21 0 -32.5 5.5t-34.5 25.5l-82 70 l-82 -70q-24 -20 -36 -25.5t-32 -5.5h-143z" />
<glyph unicode="&#xdc;" horiz-adv-x="1304" d="M92 469v842h369v-842q0 -98 44 -135t152 -37q105 0 146 36.5t41 135.5v842h368v-842q0 -243 -137.5 -361t-417.5 -118q-565 0 -565 479zM289 1382v136q0 120 121 120h165v-256h-286zM709 1382v136q0 120 118 120h170v-256h-288z" />
<glyph unicode="&#xdd;" horiz-adv-x="1243" d="M20 1311h285q45 0 60 -7.5t28 -39.5l129 -283q15 -36 48.5 -112t52.5 -121h8q19 46 100 233l121 283q13 33 28 40t62 7h281q0 -37 -11 -62l-405 -850v-399h-369v399l-403 850q-15 30 -15 62zM539 1374q0 21 8 31l172 219q17 21 29.5 28t33.5 7h138q24 0 24 -14 q0 -13 -22 -37l-172 -203q-13 -15 -24.5 -22t-19 -8t-24.5 -1h-143z" />
<glyph unicode="&#xde;" horiz-adv-x="1198" d="M92 0v1190q0 121 121 121h248v-267h209q238 0 367.5 -101t129.5 -298q0 -206 -128.5 -307.5t-368.5 -101.5h-209v-236h-369zM461 543h170q89 0 128.5 19t39.5 83q0 55 -41 73.5t-127 18.5h-170v-194z" />
<glyph unicode="&#xdf;" horiz-adv-x="1269" d="M31 778v187l127 59v31q0 47 11.5 89.5t41 85t75 73.5t118.5 50t167 19h78q231 0 343 -97t112 -259q0 -187 -121 -275q229 -104 229 -354q0 -186 -110 -291.5t-314 -105.5q-122 0 -176.5 36.5t-54.5 118.5v88h109q92 0 140 41t48 134q0 90 -58.5 131t-154.5 41h-49v319h22 q152 0 152 117q0 110 -127 110h-21q-54 0 -82 -28.5t-28 -81.5v-1016h-350v778h-127z" />
<glyph unicode="&#xe0;" horiz-adv-x="1075" d="M55 287q0 91 42 157t122 106.5t181.5 62t234.5 28.5v39q0 59 -42.5 83.5t-125.5 24.5h-336v99q0 33 14 58t43.5 41t62 26t84.5 14.5t95.5 6t108.5 1.5q215 0 329.5 -87t114.5 -249v-698h-209q-74 0 -106.5 31.5t-32.5 74.5v7q-117 -123 -279 -123q-143 0 -222 79.5 t-79 217.5zM260 1358q0 14 25 14h137q21 0 33.5 -7t29.5 -28l172 -219q9 -11 9 -31h-144q-23 0 -35.5 5t-31.5 26l-172 203q-23 26 -23 37zM416 348q0 -92 108 -92q69 0 111 25v174q-120 0 -169.5 -24t-49.5 -83z" />
<glyph unicode="&#xe1;" horiz-adv-x="1075" d="M55 287q0 91 42 157t122 106.5t181.5 62t234.5 28.5v39q0 59 -42.5 83.5t-125.5 24.5h-336v99q0 33 14 58t43.5 41t62 26t84.5 14.5t95.5 6t108.5 1.5q215 0 329.5 -87t114.5 -249v-698h-209q-74 0 -106.5 31.5t-32.5 74.5v7q-117 -123 -279 -123q-143 0 -222 79.5 t-79 217.5zM414 1087q0 21 8 31l172 219q17 21 29.5 28t33.5 7h138q24 0 24 -14q0 -13 -22 -37l-172 -203q-13 -15 -24.5 -22t-19 -8t-24.5 -1h-143zM416 348q0 -92 108 -92q69 0 111 25v174q-120 0 -169.5 -24t-49.5 -83z" />
<glyph unicode="&#xe2;" horiz-adv-x="1075" d="M55 287q0 91 42 157t122 106.5t181.5 62t234.5 28.5v39q0 59 -42.5 83.5t-125.5 24.5h-336v99q0 33 14 58t43.5 41t62 26t84.5 14.5t95.5 6t108.5 1.5q215 0 329.5 -87t114.5 -249v-698h-209q-74 0 -106.5 31.5t-32.5 74.5v7q-117 -123 -279 -123q-143 0 -222 79.5 t-79 217.5zM236 1087q0 21 8 31l172 219q17 21 29.5 28t33.5 7h96q36 0 64 -35l170 -219q8 -10 8 -31h-139q-21 0 -33 6t-35 25l-82 70l-82 -70q-25 -20 -36.5 -25.5t-30.5 -5.5h-143zM416 348q0 -92 108 -92q69 0 111 25v174q-120 0 -169.5 -24t-49.5 -83z" />
<glyph unicode="&#xe3;" horiz-adv-x="1075" d="M55 287q0 91 42 157t122 106.5t181.5 62t234.5 28.5v39q0 59 -42.5 83.5t-125.5 24.5h-336v99q0 33 14 58t43.5 41t62 26t84.5 14.5t95.5 6t108.5 1.5q215 0 329.5 -87t114.5 -249v-698h-209q-74 0 -106.5 31.5t-32.5 74.5v7q-117 -123 -279 -123q-143 0 -222 79.5 t-79 217.5zM219 1100v108q0 65 26.5 97t96.5 32q52 0 170.5 -16t177.5 -16q83 0 141 32v-106q0 -65 -26.5 -98t-95.5 -33q-65 0 -187.5 17.5t-161.5 17.5q-80 0 -141 -35zM416 348q0 -92 108 -92q69 0 111 25v174q-120 0 -169.5 -24t-49.5 -83z" />
<glyph unicode="&#xe4;" horiz-adv-x="1075" d="M55 287q0 91 42 157t122 106.5t181.5 62t234.5 28.5v39q0 59 -42.5 83.5t-125.5 24.5h-336v99q0 33 14 58t43.5 41t62 26t84.5 14.5t95.5 6t108.5 1.5q215 0 329.5 -87t114.5 -249v-698h-209q-74 0 -106.5 31.5t-32.5 74.5v7q-117 -123 -279 -123q-143 0 -222 79.5 t-79 217.5zM184 1096v135q0 121 121 121h166v-256h-287zM416 348q0 -92 108 -92q69 0 111 25v174q-120 0 -169.5 -24t-49.5 -83zM604 1096v135q0 121 119 121h170v-256h-289z" />
<glyph unicode="&#xe5;" horiz-adv-x="1075" d="M55 287q0 91 42 157t122 106.5t181.5 62t234.5 28.5v39q0 59 -42.5 83.5t-125.5 24.5h-336v99q0 33 14 58t43.5 41t62 26t84.5 14.5t95.5 6t108.5 1.5q215 0 329.5 -87t114.5 -249v-698h-209q-74 0 -106.5 31.5t-32.5 74.5v7q-117 -123 -279 -123q-143 0 -222 79.5 t-79 217.5zM346 1231q0 162 201 162q198 0 198 -162q0 -164 -198 -164q-201 0 -201 164zM416 348q0 -92 108 -92q69 0 111 25v174q-120 0 -169.5 -24t-49.5 -83zM494 1231q0 -40 10.5 -56t42.5 -16q31 0 41 16t10 56t-10 54.5t-41 14.5q-33 0 -43 -14.5t-10 -54.5z" />
<glyph unicode="&#xe6;" horiz-adv-x="1658" d="M55 287q0 90 41.5 154t122.5 101.5t180 56.5t234 26v55q0 59 -42 83.5t-124 24.5h-336v99q0 40 22 68t55 43t91 23.5t109 10.5t129 2q190 0 305 -67q115 67 297 67q217 0 340 -108t123 -308q0 -75 -11 -208h-600q0 -101 46.5 -137.5t142.5 -36.5h379v-93 q0 -83 -95.5 -118t-335.5 -35q-260 0 -385 151q-51 -50 -105.5 -82.5t-108 -46t-91.5 -18t-84 -4.5q-141 0 -220 79.5t-79 217.5zM416 348q0 -92 108 -92q77 0 140 41q-27 89 -29 154q-117 -2 -168 -24.5t-51 -78.5zM991 625h266q3 27 3 51q0 133 -119 133q-74 0 -109 -42 t-41 -142z" />
<glyph unicode="&#xe7;" horiz-adv-x="952" d="M55 512q0 522 496 522q146 0 226 -17t109 -49.5t29 -90.5v-89h-323q-39 0 -64 -4.5t-49 -20.5t-36.5 -46t-20.5 -80.5t-8 -124.5t8 -124.5t20.5 -80.5t36.5 -46t49 -20.5t64 -4.5h323v-91q0 -56 -28 -87.5t-104.5 -49t-215.5 -18.5v-33h4q94 0 136.5 -37t42.5 -86 q0 -58 -52 -99.5t-137 -41.5q-69 0 -106 11.5t-37 47.5v51h67q34 0 47 8.5t13 28.5t-13.5 27.5t-50.5 7.5h-30v121q-396 48 -396 516z" />
<glyph unicode="&#xe8;" horiz-adv-x="1079" d="M55 512q0 112 26.5 203t83.5 164.5t157.5 114t238.5 40.5q217 0 340 -108t123 -308q0 -87 -10 -208h-600q0 -101 46 -137.5t142 -36.5h379v-93q0 -83 -96 -118t-334 -35q-134 0 -232.5 40.5t-154.5 113.5t-82.5 164.5t-26.5 203.5zM231 1358q0 14 25 14h137q21 0 34 -7 t30 -28l172 -219q8 -10 8 -31h-143q-17 0 -24.5 1t-19 8t-24.5 22l-172 203q-23 26 -23 37zM414 625h264q2 18 2 51q0 133 -117 133q-74 0 -108.5 -42t-40.5 -142z" />
<glyph unicode="&#xe9;" horiz-adv-x="1079" d="M55 512q0 112 26.5 203t83.5 164.5t157.5 114t238.5 40.5q217 0 340 -108t123 -308q0 -87 -10 -208h-600q0 -101 46 -137.5t142 -36.5h379v-93q0 -83 -96 -118t-334 -35q-134 0 -232.5 40.5t-154.5 113.5t-82.5 164.5t-26.5 203.5zM414 625h264q2 18 2 51q0 133 -117 133 q-74 0 -108.5 -42t-40.5 -142zM438 1087q0 21 8 31l172 219q17 21 30 28t34 7h137q25 0 25 -14q0 -11 -23 -37l-172 -203q-19 -21 -31 -26t-36 -5h-144z" />
<glyph unicode="&#xea;" horiz-adv-x="1079" d="M55 512q0 112 26.5 203t83.5 164.5t157.5 114t238.5 40.5q217 0 340 -108t123 -308q0 -87 -10 -208h-600q0 -101 46 -137.5t142 -36.5h379v-93q0 -83 -96 -118t-334 -35q-134 0 -232.5 40.5t-154.5 113.5t-82.5 164.5t-26.5 203.5zM246 1087q0 21 8 31l172 219 q17 21 29.5 28t33.5 7h97q20 0 33 -7t30 -28l170 -219q8 -10 8 -31h-139q-21 0 -32.5 5.5t-34.5 25.5l-82 70l-82 -70q-24 -20 -36 -25.5t-32 -5.5h-143zM414 625h264q2 18 2 51q0 133 -117 133q-74 0 -108.5 -42t-40.5 -142z" />
<glyph unicode="&#xeb;" horiz-adv-x="1079" d="M55 512q0 112 26.5 203t83.5 164.5t157.5 114t238.5 40.5q217 0 340 -108t123 -308q0 -87 -10 -208h-600q0 -101 46 -137.5t142 -36.5h379v-93q0 -83 -96 -118t-334 -35q-134 0 -232.5 40.5t-154.5 113.5t-82.5 164.5t-26.5 203.5zM201 1096v135q0 121 121 121h165v-256 h-286zM414 625h264q2 18 2 51q0 133 -117 133q-74 0 -108.5 -42t-40.5 -142zM621 1096v135q0 121 118 121h170v-256h-288z" />
<glyph unicode="&#xec;" horiz-adv-x="532" d="M-66 1358q0 14 25 14h137q21 0 34 -7t30 -28l172 -219q8 -10 8 -31h-143q-17 0 -24.5 1t-19 8t-24.5 22l-172 203q-23 26 -23 37zM90 0v1024h225q123 0 123 -121v-903h-348z" />
<glyph unicode="&#xed;" horiz-adv-x="532" d="M90 0v1024h225q123 0 123 -121v-903h-348zM154 1087q0 21 8 31l172 219q17 21 29.5 28t33.5 7h138q24 0 24 -14q0 -13 -22 -37l-172 -203q-13 -15 -24.5 -22t-19 -8t-24.5 -1h-143z" />
<glyph unicode="&#xee;" horiz-adv-x="532" d="M-53 1087q0 21 8 31l172 219q17 21 29.5 28t33.5 7h97q20 0 33 -7t30 -28l170 -219q8 -10 8 -31h-139q-21 0 -32.5 5.5t-34.5 25.5l-82 70l-82 -70q-24 -20 -36 -25.5t-32 -5.5h-143zM90 0v1024h225q123 0 123 -121v-903h-348z" />
<glyph unicode="&#xef;" horiz-adv-x="532" d="M-98 1096v135q0 121 121 121h165v-256h-286zM90 0v1024h225q123 0 123 -121v-903h-348zM322 1096v135q0 121 118 121h170v-256h-288z" />
<glyph unicode="&#xf0;" horiz-adv-x="1112" d="M55 420q0 192 114.5 299.5t362.5 107.5q53 0 130 -14q-10 85 -43.5 124.5t-100.5 53.5v-110h-248v123h-161v143q0 122 161 158v131q0 120 121 120h127v-239q254 -27 396.5 -206.5t142.5 -498.5q0 -293 -130.5 -457.5t-377.5 -164.5q-125 0 -221.5 35t-155 95.5t-88 136.5 t-29.5 163zM424 440q0 -74 37 -111.5t98 -37.5q65 0 87 62t22 231h-88q-156 0 -156 -144z" />
<glyph unicode="&#xf1;" horiz-adv-x="1126" d="M92 0v1024h207q75 0 108 -30t33 -72v-11q59 64 124.5 93.5t156.5 29.5q82 0 144 -26.5t98 -74t53.5 -107t17.5 -130.5v-696h-348v676q0 61 -30.5 81.5t-88.5 20.5q-61 0 -127 -30v-748h-348zM252 1100v108q0 65 26.5 97t96.5 32q52 0 170.5 -16t177.5 -16q83 0 141 32 v-106q0 -65 -27 -98t-96 -33q-65 0 -187 17.5t-161 17.5q-80 0 -141 -35z" />
<glyph unicode="&#xf2;" horiz-adv-x="1105" d="M55 512q0 89 15.5 164.5t52 143t93 114t142 73.5t195.5 27q136 0 235 -40.5t154.5 -114t81 -164t25.5 -203.5t-25.5 -203.5t-81 -164t-154.5 -114t-235 -40.5q-110 0 -195.5 27t-142 73.5t-93 114t-52 143t-15.5 164.5zM244 1358q0 14 24 14h138q21 0 33.5 -7t29.5 -28 l172 -219q8 -10 8 -31h-143q-17 0 -24.5 1t-19 8t-24.5 22l-172 203q-22 24 -22 37zM414 512q0 -75 5 -123.5t19 -91t42.5 -62.5t72.5 -20q43 0 71 20t42 62.5t19 91t5 123.5t-5 123.5t-19 91t-42 62.5t-71 20q-44 0 -72.5 -20t-42.5 -62.5t-19 -91t-5 -123.5z" />
<glyph unicode="&#xf3;" horiz-adv-x="1105" d="M55 512q0 89 15.5 164.5t52 143t93 114t142 73.5t195.5 27q136 0 235 -40.5t154.5 -114t81 -164t25.5 -203.5t-25.5 -203.5t-81 -164t-154.5 -114t-235 -40.5q-110 0 -195.5 27t-142 73.5t-93 114t-52 143t-15.5 164.5zM414 512q0 -75 5 -123.5t19 -91t42.5 -62.5 t72.5 -20q43 0 71 20t42 62.5t19 91t5 123.5t-5 123.5t-19 91t-42 62.5t-71 20q-44 0 -72.5 -20t-42.5 -62.5t-19 -91t-5 -123.5zM440 1087q0 20 9 31l172 219q17 21 29.5 28t33.5 7h137q25 0 25 -14q0 -11 -23 -37l-172 -203q-19 -21 -31 -26t-36 -5h-144z" />
<glyph unicode="&#xf4;" horiz-adv-x="1105" d="M55 512q0 89 15.5 164.5t52 143t93 114t142 73.5t195.5 27q136 0 235 -40.5t154.5 -114t81 -164t25.5 -203.5t-25.5 -203.5t-81 -164t-154.5 -114t-235 -40.5q-110 0 -195.5 27t-142 73.5t-93 114t-52 143t-15.5 164.5zM256 1087q0 21 8 31l172 219q17 21 30 28t34 7h96 q20 0 33 -7t30 -28l170 -219q9 -11 9 -31h-140q-21 0 -32.5 5.5t-34.5 25.5l-82 70l-82 -70q-24 -20 -36 -25.5t-32 -5.5h-143zM414 512q0 -75 5 -123.5t19 -91t42.5 -62.5t72.5 -20q43 0 71 20t42 62.5t19 91t5 123.5t-5 123.5t-19 91t-42 62.5t-71 20q-44 0 -72.5 -20 t-42.5 -62.5t-19 -91t-5 -123.5z" />
<glyph unicode="&#xf5;" horiz-adv-x="1105" d="M55 512q0 89 15.5 164.5t52 143t93 114t142 73.5t195.5 27q136 0 235 -40.5t154.5 -114t81 -164t25.5 -203.5t-25.5 -203.5t-81 -164t-154.5 -114t-235 -40.5q-110 0 -195.5 27t-142 73.5t-93 114t-52 143t-15.5 164.5zM240 1100v108q0 65 26.5 97t95.5 32q52 0 171 -16 t178 -16q83 0 141 32v-106q0 -65 -27 -98t-96 -33q-65 0 -187 17.5t-161 17.5q-80 0 -141 -35zM414 512q0 -75 5 -123.5t19 -91t42.5 -62.5t72.5 -20q43 0 71 20t42 62.5t19 91t5 123.5t-5 123.5t-19 91t-42 62.5t-71 20q-44 0 -72.5 -20t-42.5 -62.5t-19 -91t-5 -123.5z " />
<glyph unicode="&#xf6;" horiz-adv-x="1105" d="M55 512q0 89 15.5 164.5t52 143t93 114t142 73.5t195.5 27q136 0 235 -40.5t154.5 -114t81 -164t25.5 -203.5t-25.5 -203.5t-81 -164t-154.5 -114t-235 -40.5q-110 0 -195.5 27t-142 73.5t-93 114t-52 143t-15.5 164.5zM201 1096v135q0 121 121 121h165v-256h-286z M414 512q0 -75 5 -123.5t19 -91t42.5 -62.5t72.5 -20q43 0 71 20t42 62.5t19 91t5 123.5t-5 123.5t-19 91t-42 62.5t-71 20q-44 0 -72.5 -20t-42.5 -62.5t-19 -91t-5 -123.5zM621 1096v135q0 121 118 121h170v-256h-288z" />
<glyph unicode="&#xf7;" horiz-adv-x="888" d="M74 395v115q0 119 121 119h618v-234h-739zM268 -4v197q0 120 121 120h227v-317h-348zM268 711v198q0 119 121 119h227v-317h-348z" />
<glyph unicode="&#xf8;" horiz-adv-x="1105" d="M55 512q0 89 15.5 164.5t52 143t92.5 114t141.5 73.5t194.5 27q137 0 236 -40.5t155 -114t81.5 -164t25.5 -203.5t-25.5 -203.5t-81.5 -164t-155 -114t-236 -40.5q-109 0 -194.5 27t-141.5 73.5t-92.5 114t-52 143t-15.5 164.5zM414 512q0 -80 8 -129l209 399 q-34 27 -80 27q-44 0 -72 -20t-42 -62.5t-18.5 -91t-4.5 -123.5zM473 238q33 -23 78 -23q44 0 72.5 20t42.5 62.5t19 91t5 123.5q0 86 -6 121z" />
<glyph unicode="&#xf9;" horiz-adv-x="1126" d="M92 328v696h348v-676q0 -60 32.5 -81t88.5 -21q57 0 123 30v748h350v-1024h-209q-75 0 -108 30t-33 72v11q-57 -64 -120.5 -93.5t-153.5 -29.5q-83 0 -145.5 26.5t-99.5 74t-55 107t-18 130.5zM223 1358q0 14 25 14h137q21 0 34 -7t30 -28l172 -219q8 -10 8 -31h-144 q-23 0 -35.5 5t-31.5 26l-172 203q-23 26 -23 37z" />
<glyph unicode="&#xfa;" horiz-adv-x="1126" d="M92 328v696h348v-676q0 -60 32.5 -81t88.5 -21q57 0 123 30v748h350v-1024h-209q-75 0 -108 30t-33 72v11q-57 -64 -120.5 -93.5t-153.5 -29.5q-83 0 -145.5 26.5t-99.5 74t-55 107t-18 130.5zM453 1087q0 21 8 31l172 219q17 21 29.5 28t33.5 7h138q24 0 24 -14 q0 -13 -22 -37l-172 -203q-13 -15 -24.5 -22t-19 -8t-24.5 -1h-143z" />
<glyph unicode="&#xfb;" horiz-adv-x="1126" d="M92 328v696h348v-676q0 -60 32.5 -81t88.5 -21q57 0 123 30v748h350v-1024h-209q-75 0 -108 30t-33 72v11q-57 -64 -120.5 -93.5t-153.5 -29.5q-83 0 -145.5 26.5t-99.5 74t-55 107t-18 130.5zM258 1087q0 21 8 31l172 219q17 21 30 28t34 7h96q36 0 64 -35l169 -219 q9 -11 9 -31h-140q-21 0 -32.5 5.5t-34.5 25.5l-82 70l-82 -70q-24 -20 -36 -25.5t-32 -5.5h-143z" />
<glyph unicode="&#xfc;" horiz-adv-x="1126" d="M92 328v696h348v-676q0 -60 32.5 -81t88.5 -21q57 0 123 30v748h350v-1024h-209q-75 0 -108 30t-33 72v11q-57 -64 -120.5 -93.5t-153.5 -29.5q-83 0 -145.5 26.5t-99.5 74t-55 107t-18 130.5zM205 1096v135q0 121 121 121h166v-256h-287zM625 1096v135q0 121 118 121 h170v-256h-288z" />
<glyph unicode="&#xfd;" horiz-adv-x="1126" d="M92 358v666h348v-645q0 -60 32.5 -81.5t88.5 -21.5q55 0 123 31v717h350v-948q0 -51 -11.5 -101t-43.5 -104.5t-81.5 -94.5t-133 -66.5t-191.5 -26.5q-165 0 -256.5 16.5t-127 49t-35.5 89.5v90h372q85 0 121.5 43t36.5 160v12q-57 -64 -120.5 -93.5t-153.5 -29.5 q-83 0 -145.5 26.5t-99.5 74t-55 107t-18 130.5zM453 1087q0 21 8 31l172 219q17 21 29.5 28t33.5 7h138q24 0 24 -14q0 -13 -22 -37l-172 -203q-13 -15 -24.5 -22t-19 -8t-24.5 -1h-143z" />
<glyph unicode="&#xfe;" horiz-adv-x="1116" d="M92 -307v1536q0 123 125 123h223v-441q45 52 113 87.5t145 35.5q361 0 361 -522t-361 -522q-77 0 -145 35.5t-113 87.5v-420h-348zM440 281q64 -29 117 -29q84 0 113.5 59t29.5 201q0 143 -29.5 204.5t-113.5 61.5q-55 0 -117 -28v-469z" />
<glyph unicode="&#xff;" horiz-adv-x="1126" d="M92 358v666h348v-645q0 -60 32.5 -81.5t88.5 -21.5q55 0 123 31v717h350v-948q0 -51 -11.5 -101t-43.5 -104.5t-81.5 -94.5t-133 -66.5t-191.5 -26.5q-165 0 -256.5 16.5t-127 49t-35.5 89.5v90h372q85 0 121.5 43t36.5 160v12q-57 -64 -120.5 -93.5t-153.5 -29.5 q-83 0 -145.5 26.5t-99.5 74t-55 107t-18 130.5zM205 1096v135q0 121 121 121h166v-256h-287zM625 1096v135q0 121 118 121h170v-256h-288z" />
<glyph unicode="&#x152;" horiz-adv-x="1761" d="M66 655q0 343 146 499.5t435 156.5h1063v-189q0 -118 -125 -118h-383v-195h432v-287h-432v-215h518v-188q0 -119 -125 -119h-948q-289 0 -435 156t-146 499zM444 655q0 -138 22.5 -214.5t64.5 -105t116 -28.5h187v697h-187q-74 0 -116.5 -29t-64.5 -105.5t-22 -214.5z " />
<glyph unicode="&#x153;" horiz-adv-x="1722" d="M55 512q0 89 15.5 164.5t52 143t92.5 114t141.5 73.5t194.5 27q201 0 323 -88q125 88 328 88q218 0 340.5 -108t122.5 -308q0 -87 -10 -208h-598q0 -101 46 -137.5t140 -36.5h379v-93q0 -83 -95 -118t-333 -35q-199 0 -322 86q-123 -86 -321 -86q-109 0 -194.5 27 t-141.5 73.5t-92.5 114t-52 143t-15.5 164.5zM414 512q0 -75 4.5 -123.5t18.5 -91t42 -62.5t72 -20t72 20t42 62.5t18.5 91t4.5 123.5t-4.5 123.5t-18.5 91t-42 62.5t-72 20t-72 -20t-42 -62.5t-18.5 -91t-4.5 -123.5zM1057 625h264q2 18 2 51q0 133 -119 133 q-74 0 -108.5 -42t-38.5 -142z" />
<glyph unicode="&#x178;" horiz-adv-x="1243" d="M20 1311h285q45 0 60 -7.5t28 -39.5l129 -283q15 -36 48.5 -112t52.5 -121h8q19 46 100 233l121 283q13 33 28 40t62 7h281q0 -37 -11 -62l-405 -850v-399h-369v399l-403 850q-15 30 -15 62zM268 1382v136q0 120 121 120h166v-256h-287zM688 1382v136q0 120 119 120h170 v-256h-289z" />
<glyph unicode="&#x2c6;" horiz-adv-x="681" d="M49 1087q0 21 8 31l172 219q17 21 30 28t34 7h96q36 0 64 -35l170 -219q8 -10 8 -31h-139q-21 0 -33 6t-35 25l-82 70l-82 -70q-25 -20 -36.5 -25.5t-30.5 -5.5h-144z" />
<glyph unicode="&#x2dc;" horiz-adv-x="712" d="M49 1100v108q0 65 26.5 97t96.5 32q52 0 170.5 -16t177.5 -16q84 0 142 32v-106q0 -65 -27 -98t-96 -33q-65 0 -187.5 17.5t-161.5 17.5q-80 0 -141 -35z" />
<glyph unicode="&#x2000;" horiz-adv-x="839" />
<glyph unicode="&#x2001;" horiz-adv-x="1679" />
<glyph unicode="&#x2002;" horiz-adv-x="839" />
<glyph unicode="&#x2003;" horiz-adv-x="1679" />
<glyph unicode="&#x2004;" horiz-adv-x="559" />
<glyph unicode="&#x2005;" horiz-adv-x="419" />
<glyph unicode="&#x2006;" horiz-adv-x="279" />
<glyph unicode="&#x2007;" horiz-adv-x="279" />
<glyph unicode="&#x2008;" horiz-adv-x="209" />
<glyph unicode="&#x2009;" horiz-adv-x="335" />
<glyph unicode="&#x200a;" horiz-adv-x="93" />
<glyph unicode="&#x2010;" d="M74 395v115q0 119 121 119h467v-234h-588z" />
<glyph unicode="&#x2011;" d="M74 395v115q0 119 121 119h467v-234h-588z" />
<glyph unicode="&#x2012;" d="M74 395v115q0 119 121 119h467v-234h-588z" />
<glyph unicode="&#x2013;" horiz-adv-x="1124" d="M74 395v115q0 119 121 119h852v-234h-973z" />
<glyph unicode="&#x2014;" horiz-adv-x="1540" d="M74 395v115q0 119 121 119h1269v-234h-1390z" />
<glyph unicode="&#x2018;" horiz-adv-x="499" d="M49 864l111 408q9 39 69 39h197l-45 -396q-6 -51 -53 -51h-279z" />
<glyph unicode="&#x2019;" horiz-adv-x="499" d="M49 864l45 396q6 51 53 51h279l-113 -408q-12 -39 -67 -39h-197z" />
<glyph unicode="&#x201a;" horiz-adv-x="499" d="M49 -162l45 395q3 25 17.5 38.5t35.5 13.5h279l-113 -408q-12 -39 -67 -39h-197z" />
<glyph unicode="&#x201c;" horiz-adv-x="948" d="M49 864l111 408q9 39 69 39h197l-45 -396q-6 -51 -53 -51h-279zM496 864l112 408q9 39 68 39h194l-43 -396q-3 -25 -17 -38t-34 -13h-280z" />
<glyph unicode="&#x201d;" horiz-adv-x="948" d="M49 864l45 396q6 51 53 51h279l-113 -408q-12 -39 -67 -39h-197zM496 864l45 396q6 51 53 51h276l-110 -408q-12 -39 -68 -39h-196z" />
<glyph unicode="&#x201e;" horiz-adv-x="948" d="M49 -162l45 395q3 25 17.5 38.5t35.5 13.5h279l-113 -408q-12 -39 -67 -39h-197zM496 -162l45 395q3 25 17.5 38.5t35.5 13.5h276l-110 -408q-12 -39 -68 -39h-196z" />
<glyph unicode="&#x2022;" horiz-adv-x="524" d="M74 326v245q0 121 121 121h256v-246q0 -120 -121 -120h-256z" />
<glyph unicode="&#x2026;" horiz-adv-x="1503" d="M74 0v197q0 120 121 120h229v-317h-350zM578 0v197q0 120 120 120h228v-317h-348zM1077 0v197q0 120 121 120h229v-317h-350z" />
<glyph unicode="&#x202f;" horiz-adv-x="335" />
<glyph unicode="&#x2039;" d="M74 395v234l538 309q15 10 32.5 8t17.5 -24v-195l-381 -213l340 -182q41 -21 41 -76v-186z" />
<glyph unicode="&#x203a;" d="M74 70v186q0 55 43 76l340 182l-383 213v195q0 15 9 20.5t19.5 3.5t20.5 -8l539 -309v-234z" />
<glyph unicode="&#x205f;" horiz-adv-x="419" />
<glyph unicode="&#x20ac;" horiz-adv-x="1273" d="M43 416v78q0 118 121 118h92v86h-213v78q0 119 121 119h115q43 219 185 322.5t378 103.5q212 0 300.5 -42t88.5 -134v-125h-389q-89 0 -136.5 -28.5t-70.5 -96.5h381v-78q0 -119 -121 -119h-281v-86h402v-77q0 -119 -121 -119h-260q23 -69 70 -97t137 -28h389v-125 q0 -92 -88.5 -134t-300.5 -42q-237 0 -378.5 103t-184.5 323h-236z" />
<glyph unicode="&#x2122;" horiz-adv-x="1585" d="M66 1126v113q0 72 73 72h484v-113q0 -72 -74 -72h-94v-602h-222v602h-167zM696 524v725q0 29 19.5 46.5t56.5 17.5h119q31 0 45.5 -6.5t24.5 -28.5l149 -291l141 291q11 23 25.5 29t46.5 6h123q36 0 55 -18.5t19 -51.5v-719h-197v240q0 123 4 211h-6l-156 -324 q-9 -20 -20 -26.5t-39 -6.5q-24 0 -35 6.5t-20 26.5l-154 324h-6q4 -88 4 -211v-240h-199z" />
<glyph unicode="&#x25fc;" horiz-adv-x="1024" d="M0 0v1024h1024v-1024h-1024z" />
</font>
</defs>
</svg>
