<?xml version="1.0" standalone="no"?>
<!DOCTYPE svg PUBLIC "-//W3C//DTD SVG 1.1//EN" "http://www.w3.org/Graphics/SVG/1.1/DTD/svg11.dtd" >
<svg xmlns="http://www.w3.org/2000/svg">
<metadata></metadata>
<defs>
<font id="erstebold" horiz-adv-x="1114" >
<font-face units-per-em="2048" ascent="1536" descent="-512" />
<missing-glyph horiz-adv-x="430" />
<glyph unicode="&#xfb01;" horiz-adv-x="1179" d="M39 821v154l133 49v55q0 38 1.5 62.5t7.5 58.5t17 56t32 46t51 38t75 23t103 9q109 0 157 -30.5t48 -102.5v-72h-142q-41 0 -54 -19.5t-13 -68.5v-55h499q111 0 111 -111v-913h-283v821h-327v-821h-283v821h-133zM782 1114v127q0 111 107 111h176v-238h-283z" />
<glyph unicode="&#xfb02;" horiz-adv-x="1179" d="M39 821v154l133 49v55q0 38 1.5 62.5t7.5 58.5t17 56t32 46t51 38t75 23t103 9q107 0 156 -30.5t49 -102.5v-72h-142q-41 0 -54 -19.5t-13 -68.5v-55h192v-203h-192v-821h-283v821h-133zM782 0v1241q0 111 107 111h176v-1352h-283z" />
<glyph unicode="&#xfb03;" horiz-adv-x="1785" d="M39 821v154l133 49v55q0 38 1.5 62.5t7.5 58.5t17 56t32 46t51 38t75 23t103 9q109 0 157 -30.5t48 -102.5v-72h-142q-41 0 -54 -19.5t-13 -68.5v-55h327v55q0 37 1.5 62.5t7.5 58.5t17.5 55.5t33 46.5t51.5 38t75 23t103 9q107 0 155 -30.5t48 -102.5v-72h-139 q-42 0 -56 -19.5t-14 -68.5v-55h498q110 0 110 -111v-913h-282v821h-326v-821h-283v821h-327v-821h-283v821h-133zM1391 1114v127q0 111 106 111h176v-238h-282z" />
<glyph unicode="&#xfb04;" horiz-adv-x="1785" d="M39 821v154l133 49v55q0 38 1.5 62.5t7.5 58.5t17 56t32 46t51 38t75 23t103 9q109 0 157 -30.5t48 -102.5v-72h-142q-41 0 -54 -19.5t-13 -68.5v-55h327v55q0 38 1.5 62.5t7.5 58.5t17 56t32 46t51 38t75 23t103 9q109 0 157 -30.5t48 -102.5v-72h-139q-42 0 -56 -19.5 t-14 -68.5v-55h192v-203h-192v-821h-283v821h-327v-821h-283v821h-133zM1391 0v1241q0 111 106 111h176v-1352h-282z" />
<glyph horiz-adv-x="2048" />
<glyph horiz-adv-x="2048" />
<glyph unicode="&#xd;" horiz-adv-x="2048" />
<glyph unicode=" "  horiz-adv-x="430" />
<glyph unicode="&#x09;" horiz-adv-x="430" />
<glyph unicode="&#xa0;" horiz-adv-x="430" />
<glyph unicode="!" horiz-adv-x="483" d="M100 0v172q0 113 107 113h176v-285h-283zM100 385v934h176q56 0 81.5 -28t25.5 -85v-821h-283z" />
<glyph unicode="&#x22;" horiz-adv-x="874" d="M102 1270q-3 28 4.5 34.5t24.5 6.5h205q10 0 14 -0.5t10.5 -4.5t5.5 -12.5t-1 -23.5l-37 -391h-189zM510 1270q-4 28 3 34.5t26 6.5h204q9 0 13 -0.5t10.5 -4.5t6 -12.5t-0.5 -23.5l-37 -391h-190z" />
<glyph unicode="#" horiz-adv-x="1427" d="M43 0l219 381h-156v49q0 105 107 105h135l141 241h-251v49q0 105 106 105h229l158 268q33 58 69 85.5t99 27.5h55l-221 -381h271l157 268q33 58 68.5 85.5t99.5 27.5h55l-221 -381h158v-49q0 -105 -107 -105h-137l-141 -241h254v-50q0 -104 -107 -104h-231l-156 -268 q-33 -57 -70 -85t-100 -28h-53l219 381h-270l-154 -268q-35 -58 -71.5 -85.5t-98.5 -27.5h-55zM508 535h268l144 241h-271z" />
<glyph unicode="$" horiz-adv-x="1046" d="M57 139v97h394q124 0 181.5 25.5t57.5 96.5q0 32 -21.5 58.5t-58 47.5t-83.5 41t-99 42t-104.5 47.5t-99.5 61t-83.5 77.5t-58 102.5t-21.5 131.5q0 145 97.5 240.5t287.5 109.5v88q0 111 107 111h47v-199q167 -5 247.5 -37.5t80.5 -108.5v-96h-350q-122 0 -169 -27.5 t-47 -89.5q0 -35 27 -64.5t71 -49.5t100.5 -43.5t115 -46t115 -57.5t100.5 -76.5t71 -105.5t27 -142q0 -152 -92.5 -253.5t-296.5 -123.5v-90q0 -111 -104 -111h-50v197q-88 2 -154.5 10t-121.5 24.5t-84 44.5t-29 68z" />
<glyph unicode="%" horiz-adv-x="1323" d="M29 987q0 172 71 253t211 81q141 0 212 -81t71 -253t-71 -252t-212 -80t-211.5 80t-70.5 252zM188 987q0 -109 31.5 -155t91.5 -46q62 0 92.5 45.5t30.5 155.5q0 109 -30.5 154t-92.5 45q-61 0 -92 -45t-31 -154zM209 0l674 1198q31 58 64 85.5t89 27.5h70l-674 -1198 q-33 -60 -64.5 -86.5t-88.5 -26.5h-70zM729 328q0 172 71 253t210 81q141 0 212.5 -81t71.5 -253q0 -171 -71.5 -251.5t-212.5 -80.5q-139 0 -210 80.5t-71 251.5zM887 328q0 -109 31.5 -155t91.5 -46q62 0 93.5 46t31.5 155t-31.5 153.5t-93.5 44.5q-61 0 -92 -44.5 t-31 -153.5z" />
<glyph unicode="&#x26;" horiz-adv-x="1323" d="M70 322q0 118 59.5 208t163.5 166q-137 183 -137 340q0 68 26 127t77 106.5t136 75t193 27.5q193 0 300 -81.5t107 -223.5q0 -55 -17.5 -106.5t-45 -92t-70 -81.5t-83 -71t-93.5 -63q90 -90 248 -227q92 110 162 248l190 -137q-86 -158 -180 -261l180 -159l-131 -101 q-33 -26 -76 -26q-68 0 -123 53l-61 55q-184 -108 -408 -108q-190 0 -303.5 89.5t-113.5 242.5zM346 344q0 -61 51 -94t127 -33q108 0 195 43q-169 154 -258 246q-115 -84 -115 -162zM440 1028q0 -80 80 -190q103 61 155 109t52 104q0 55 -40 81.5t-103 26.5 q-69 0 -106.5 -38.5t-37.5 -92.5z" />
<glyph unicode="'" horiz-adv-x="468" d="M102 1270q-3 28 4.5 34.5t24.5 6.5h205q10 0 14 -0.5t10.5 -4.5t5.5 -12.5t-1 -23.5l-37 -391h-189z" />
<glyph unicode="(" horiz-adv-x="759" d="M111 655q0 861 553 861v-130q-45 0 -77 -9.5t-63 -36.5t-50.5 -78t-35.5 -131t-23 -198t-7 -278q0 -191 11.5 -324t30.5 -213t53 -124t70 -58t91 -14v-127q-553 0 -553 860z" />
<glyph unicode=")" horiz-adv-x="759" d="M96 -78q55 0 91 14t70 58t53 124t30.5 213t11.5 324q0 160 -7 278t-23 198t-35.5 131t-50.5 78t-63 36.5t-77 9.5v130q553 0 553 -861q0 -860 -553 -860v127z" />
<glyph unicode="*" horiz-adv-x="702" d="M46.5 1038.5q-5.5 11.5 2.5 24.5l31 100q4 10 7.5 14.5t14.5 7t29 -8.5l162 -74l-23 168q-6 20 -0.5 29t10.5 10.5t17 1.5h109q12 0 17 -1.5t8.5 -11t0.5 -28.5l-22 -168l161 74q17 11 27.5 8t13 -7t6.5 -16l37 -98q12 -32 -34 -41l-179 -27l127 -125q14 -14 16 -23.5 t-2 -13.5t-14 -10l-84 -61q-27 -23 -49 16l-84 150l-86 -150q-13 -24 -25 -24.5t-24 10.5l-88 57q-10 8 -13 12t-0.5 14t17.5 25l121 123l-174 27q-28 5 -33.5 16.5z" />
<glyph unicode="+" horiz-adv-x="829" d="M100 414v92q0 54 28 79t93 25h94v90q0 59 26 87t81 28h92v-205h215v-196h-215v-205h-199v205h-215z" />
<glyph unicode="," horiz-adv-x="485" d="M66 -152l47 385q8 48 57 48h215l-102 -396q-11 -37 -68 -37h-149z" />
<glyph unicode="-" horiz-adv-x="774" d="M100 414v92q0 104 107 104h467v-196h-574z" />
<glyph unicode="." horiz-adv-x="483" d="M100 0v172q0 113 107 113h176v-285h-283z" />
<glyph unicode="/" horiz-adv-x="997" d="M43 0l688 1198q33 58 69 85.5t99 27.5h55l-686 -1198q-35 -58 -71.5 -85.5t-98.5 -27.5h-55z" />
<glyph unicode="0" horiz-adv-x="1271" d="M76 655q0 342 142.5 504t418.5 162t417.5 -162t141.5 -504t-141.5 -503.5t-417.5 -161.5t-418.5 161.5t-142.5 503.5zM383 655q0 -231 62.5 -326.5t191.5 -95.5q128 0 191 96t63 326t-63 326t-191 96q-129 0 -191.5 -95.5t-62.5 -326.5z" />
<glyph unicode="1" horiz-adv-x="827" d="M41 0v145q0 55 28.5 80t86.5 25h114v809h-229v147q0 105 115 105h411v-1061h219v-146q0 -55 -28 -79.5t-86 -24.5h-631z" />
<glyph unicode="2" horiz-adv-x="1069" d="M41 0v154q0 75 21.5 144.5t58 124.5t83.5 105.5t99 91.5t104.5 78t99.5 70.5t83.5 63.5t58 61.5t21.5 60.5q0 109 -160 109h-422v111q0 84 109.5 115.5t326.5 31.5q222 0 341.5 -99t119.5 -255q0 -69 -33 -135.5t-86 -119t-117 -103t-128 -95.5t-117 -87t-86 -88t-33 -89 h629v-146q0 -104 -115 -104h-858z" />
<glyph unicode="3" horiz-adv-x="1083" d="M49 143v105h457q102 0 152.5 31.5t50.5 113.5q0 158 -203 158h-305v235h268q98 0 145.5 29.5t47.5 106.5q0 79 -50.5 110t-152.5 31h-387v104q0 86 97.5 120t303.5 34q235 0 364.5 -91.5t129.5 -271.5q0 -108 -57 -183t-162 -103q130 -34 198 -114t68 -202 q0 -182 -132.5 -274t-369.5 -92q-463 0 -463 153z" />
<glyph unicode="4" horiz-adv-x="1077" d="M49 244v174q0 66 31 114l405 625q32 49 54 76t53.5 49t71 30.5t96.5 8.5h135l-512 -829h283l45 149q27 56 60 83.5t87 27.5h70v-260h100v-248h-100v-244h-297v244h-582z" />
<glyph unicode="5" horiz-adv-x="1083" d="M49 143v105h457q99 0 151 37.5t52 122.5q0 84 -53.5 130t-149.5 46h-418v727h838v-148q0 -104 -113 -104h-457v-238h140q93 0 170 -14.5t129.5 -38.5t92.5 -58.5t63.5 -70t38 -78t19.5 -78.5t5 -75q0 -212 -132 -315t-370 -103q-463 0 -463 153z" />
<glyph unicode="6" horiz-adv-x="1214" d="M76 649q0 672 590 672q205 0 294 -34.5t89 -115.5v-108h-295q-77 0 -129.5 -6t-96.5 -22t-71 -45.5t-44.5 -75t-25.5 -111.5q77 14 254 14q498 0 498 -399q0 -90 -29.5 -165.5t-89.5 -135.5t-161 -93.5t-234 -33.5q-275 0 -412 159.5t-137 499.5zM383 614 q0 -215 51.5 -296.5t181.5 -81.5q111 0 167.5 46.5t56.5 149.5q0 98 -59.5 140t-174.5 42h-223z" />
<glyph unicode="7" horiz-adv-x="980" d="M29 1063v248h919v-176q0 -71 -33 -115l-309 -496q-68 -108 -86 -157t-18 -140v-227h-297v244q0 76 22 147t80 162l326 510h-604z" />
<glyph unicode="8" horiz-adv-x="1187" d="M70 356q0 247 264 316q-105 27 -161 102.5t-56 183.5q0 181 121.5 272t355.5 91q233 0 355 -91t122 -272q0 -108 -56 -183.5t-161 -102.5q262 -69 262 -316q0 -181 -139 -273.5t-383 -92.5q-248 0 -386 92t-138 274zM377 393q0 -84 54 -120.5t163 -36.5q108 0 162.5 36.5 t54.5 120.5t-52.5 121t-164.5 37t-164.5 -37t-52.5 -121zM422 926q0 -71 44.5 -108.5t127.5 -37.5t126.5 37.5t43.5 108.5q0 143 -170 143q-172 0 -172 -143z" />
<glyph unicode="9" horiz-adv-x="1214" d="M76 893q0 89 29.5 164.5t89 135.5t161 94t234.5 34q275 0 412 -159.5t137 -499.5q0 -672 -588 -672q-206 0 -294.5 34t-88.5 113v111h293q78 0 130.5 6t96.5 22t71 46t44 75t24 111q-77 -14 -254 -14q-497 0 -497 399zM375 879q0 -100 59 -141.5t174 -41.5h223 q0 215 -51.5 297t-181.5 82q-110 0 -166.5 -46.5t-56.5 -149.5z" />
<glyph unicode=":" horiz-adv-x="483" d="M100 121v174q0 111 107 111h176v-285h-283zM100 604v174q0 111 107 111h176v-285h-283z" />
<glyph unicode=";" horiz-adv-x="485" d="M66 -152l47 385q8 48 57 48h215l-102 -396q-11 -37 -68 -37h-149zM100 604v174q0 111 109 111h176v-285h-285z" />
<glyph unicode="&#x3c;" horiz-adv-x="774" d="M100 414v196l531 213q43 21 43 -14v-162l-344 -135l307 -123q15 -5 20.5 -8t11 -13t5.5 -28v-162z" />
<glyph unicode="=" horiz-adv-x="774" d="M100 260v94q0 105 107 105h467v-199h-574zM100 565v92q0 105 107 105h467v-197h-574z" />
<glyph unicode="&#x3e;" horiz-adv-x="774" d="M100 178v162q0 18 5.5 28t11 13t20.5 8l307 123l-344 135v162q0 33 43 14l531 -213v-196z" />
<glyph unicode="?" horiz-adv-x="980" d="M55 1075v99q0 44 28 73t86 45t131.5 22.5t178.5 6.5q218 0 324 -97.5t106 -256.5q0 -67 -22 -122t-57 -92t-77.5 -69t-84.5 -61.5t-77 -61.5t-57 -76.5t-22 -99.5h-283q0 80 21.5 145t56.5 107t77 76t84 60.5t77 52.5t56.5 59t21.5 73q0 53 -38.5 85t-121.5 32h-408z M229 0v172q0 113 105 113h178v-285h-283z" />
<glyph unicode="@" horiz-adv-x="1591" d="M111 553q0 132 37 242t101.5 187.5t152 131.5t186.5 79.5t207 25.5q110 0 207.5 -20t186 -66t152 -115t101 -174t37.5 -236q0 -57 -11 -113.5t-40.5 -117.5t-75.5 -107t-123 -76t-176 -30h-92l-52 80q-82 -90 -190 -90q-266 0 -266 376q0 179 65 277t201 98 q111 0 190 -90v12q0 30 22 51t68 21h121v-580q96 0 150.5 80.5t54.5 208.5q0 469 -530 469q-89 0 -166 -18t-144.5 -58t-115.5 -99.5t-75.5 -148.5t-27.5 -200q0 -110 27 -199.5t73 -149t109 -100t132 -58t145 -17.5h86v-142h-86q-104 0 -198 25.5t-175.5 79.5t-140.5 131.5 t-93 187.5t-34 242zM670 530q0 -114 29 -165.5t102 -51.5q57 0 108 35v367q-56 35 -108 35q-72 0 -101.5 -53.5t-29.5 -166.5z" />
<glyph unicode="A" horiz-adv-x="1191" d="M27 0q0 19 6 49l336 1215q9 32 28 41.5t62 9.5h276q43 0 62 -9.5t28 -41.5l334 -1215q6 -27 6 -49h-235q-43 0 -58 7.5t-24 39.5l-74 279h-358l-74 -279q-7 -32 -22 -39.5t-58 -7.5h-235zM465 551h256l-123 457h-10z" />
<glyph unicode="B" horiz-adv-x="1212" d="M115 113v1085q0 113 108 113h395q480 0 480 -355q0 -108 -56 -182t-161 -102q264 -69 264 -314q0 -358 -479 -358h-443q-108 0 -108 113zM412 250h231q101 0 152 34t51 117q0 80 -51.5 115t-151.5 35h-231v-301zM412 786h194q98 0 146.5 29.5t48.5 106.5q0 79 -51 108 t-154 29h-184v-273z" />
<glyph unicode="C" horiz-adv-x="1048" d="M78 655q0 344 142.5 505t428.5 161q202 0 282.5 -34.5t80.5 -115.5v-108h-363q-104 0 -160 -36t-81 -123t-25 -249t25 -248.5t81 -122.5t160 -36h363v-109q0 -81 -80.5 -115t-282.5 -34q-286 0 -428.5 161t-142.5 504z" />
<glyph unicode="D" horiz-adv-x="1277" d="M115 113v1085q0 113 108 113h418q276 0 417.5 -158t141.5 -498t-141.5 -497.5t-417.5 -157.5h-418q-108 0 -108 113zM412 250h221q64 0 110 19t81.5 63.5t53 125t17.5 197.5t-17.5 197t-53 125t-81.5 63.5t-110 18.5h-221v-809z" />
<glyph unicode="E" horiz-adv-x="1026" d="M115 113v1085q0 113 108 113h746v-144q0 -108 -117 -108h-440v-273h481v-235h-481v-301h567v-144q0 -106 -115 -106h-641q-108 0 -108 113z" />
<glyph unicode="F" horiz-adv-x="976" d="M115 0v1198q0 113 108 113h733v-144q0 -108 -116 -108h-428v-330h458v-235h-458v-494h-297z" />
<glyph unicode="G" horiz-adv-x="1150" d="M78 655q0 344 141 505t426 161q206 0 297.5 -35.5t91.5 -114.5v-108h-383q-105 0 -161.5 -36t-81.5 -123t-25 -249t25 -248.5t81.5 -122.5t161.5 -36h107v295q0 57 26 84.5t84 27.5h187v-516q0 -78 -100.5 -113.5t-309.5 -35.5q-285 0 -426 160.5t-141 504.5z" />
<glyph unicode="H" horiz-adv-x="1271" d="M115 0v1198q0 113 108 113h189v-525h448v525h297v-1198q0 -57 -26.5 -85t-83.5 -28h-187v551h-448v-551h-297z" />
<glyph unicode="I" horiz-adv-x="524" d="M115 0v1198q0 113 108 113h189v-1311h-297z" />
<glyph unicode="J" horiz-adv-x="628" d="M20 121v127h132q40 0 53.5 20t13.5 70v860q0 113 109 113h188v-1028q0 -38 -1.5 -63t-7.5 -58.5t-17.5 -56t-32.5 -46t-50.5 -37.5t-74 -23t-101.5 -9q-108 0 -159.5 30.5t-51.5 100.5z" />
<glyph unicode="K" horiz-adv-x="1206" d="M115 0v1198q0 113 108 113h189v-606l381 550q23 35 39.5 45.5t46.5 10.5h274q0 -30 -18 -56l-422 -579l442 -621q19 -30 19 -55h-263q-45 0 -65 10t-47 49l-387 545v-604h-297z" />
<glyph unicode="L" horiz-adv-x="980" d="M115 113v1085q0 113 108 113h189v-1061h549v-144q0 -106 -115 -106h-623q-108 0 -108 113z" />
<glyph unicode="M" horiz-adv-x="1548" d="M115 0v1214q0 46 28.5 73.5t83.5 27.5h152q43 0 64 -10t40 -45l295 -576l281 576q19 36 39.5 45.5t64.5 9.5h158q56 0 84.5 -28.5t28.5 -80.5v-1206h-267v502q0 179 7 368h-9l-301 -614q-14 -31 -31.5 -41t-58.5 -10q-39 0 -57 10t-33 41l-303 614h-6q6 -162 6 -368v-502 h-266z" />
<glyph unicode="N" horiz-adv-x="1312" d="M115 0v1206q0 109 112 109h152q42 0 62.5 -10t41.5 -45l447 -820h8q-6 133 -6 402v469h266v-1215q0 -100 -104 -100h-160q-42 0 -63 10t-40 45l-450 819h-6q6 -162 6 -368v-502h-266z" />
<glyph unicode="O" horiz-adv-x="1273" d="M78 655q0 342 141.5 504t417.5 162q277 0 418 -161.5t141 -504.5q0 -342 -141 -503.5t-418 -161.5q-276 0 -417.5 161.5t-141.5 503.5zM383 655q0 -231 62.5 -326.5t191.5 -95.5t191.5 95.5t62.5 326.5t-62.5 326.5t-191.5 95.5t-191.5 -95.5t-62.5 -326.5z" />
<glyph unicode="P" horiz-adv-x="1179" d="M115 0v1200q0 55 25 83t81 28h434q227 0 353.5 -118t126.5 -316q0 -195 -126.5 -310.5t-353.5 -115.5h-243v-451h-297zM412 700h223q101 0 155 40.5t54 140.5q0 97 -54 137.5t-155 40.5h-223v-359z" />
<glyph unicode="Q" horiz-adv-x="1273" d="M78 655q0 342 141.5 504t417.5 162t417.5 -162t141.5 -504q0 -171 -54 -293t-149 -182h248q0 -152 -30 -196.5t-132 -44.5q-55 0 -208 22t-238 29q-277 0 -416 161t-139 504zM383 655q0 -231 62.5 -326.5t191.5 -95.5t191.5 95.5t62.5 326.5t-62.5 326.5t-191.5 95.5 t-191.5 -95.5t-62.5 -326.5z" />
<glyph unicode="R" horiz-adv-x="1243" d="M115 0v1200q0 55 25 83t81 28h432q227 0 353.5 -115t126.5 -307q0 -137 -67.5 -234t-195.5 -143l304 -457q18 -32 18 -55h-266q-44 0 -65 10t-46 49l-252 406h-151v-465h-297zM412 715h221q211 0 211 174q0 170 -211 170h-221v-344z" />
<glyph unicode="S" horiz-adv-x="1064" d="M66 135v113h444q174 0 174 112q0 39 -34 71t-88 57t-119.5 52.5t-131 64.5t-119.5 83t-88 119t-34 164q0 156 112.5 253t331.5 97q213 0 314.5 -31t101.5 -114v-113h-387q-84 0 -122 -24.5t-38 -75.5q0 -36 34 -65t88.5 -52.5t120 -49t131 -61.5t120 -81t88.5 -116.5 t34 -160.5q0 -82 -26.5 -149.5t-83.5 -122t-157 -85t-236 -30.5q-430 0 -430 145z" />
<glyph unicode="T" horiz-adv-x="944" d="M20 1059v147q0 105 115 105h789v-148q0 -104 -117 -104h-186v-1059h-297v1059h-304z" />
<glyph unicode="U" horiz-adv-x="1288" d="M115 459v852h297v-852q0 -120 54.5 -169.5t180.5 -49.5q125 0 177.5 49t52.5 170v852h297v-852q0 -469 -527 -469q-532 0 -532 469z" />
<glyph unicode="V" horiz-adv-x="1191" d="M27 1311h237q41 0 57 -8t23 -39l250 -961h8l246 961q9 31 24.5 39t57.5 8h235q0 -19 -6 -49l-338 -1215q-8 -32 -28.5 -41.5t-63.5 -9.5h-270q-43 0 -63 9.5t-27 41.5l-336 1215q-6 27 -6 49z" />
<glyph unicode="W" horiz-adv-x="1783" d="M27 1311h235q42 0 57.5 -8t22.5 -39q135 -555 213 -908h8l176 908q6 29 22.5 38t57.5 9q13 0 37.5 0.5t44.5 0.5t37 -1q48 0 72.5 -9t31.5 -38l179 -908h8q56 280 209 908q7 31 23 39t59 8h235q0 -22 -6 -49l-303 -1215q-7 -31 -29 -41t-65 -10h-238q-45 0 -66.5 10 t-27.5 41l-76 397q-50 288 -55 322h-4q-25 -162 -47 -277t-50.5 -244t-42.5 -198q-6 -31 -27.5 -41t-64.5 -10h-225q-43 0 -64.5 10t-29.5 41l-301 1215q-6 27 -6 49z" />
<glyph unicode="X" horiz-adv-x="1257" d="M35 0q0 22 18 51l398 619l-377 587q-17 27 -17 54h273q29 0 46.5 -11.5t39.5 -44.5l225 -342l215 342q23 34 41 45t47 11h242q0 -27 -17 -54l-372 -565l407 -641q19 -30 19 -51h-260q-42 0 -62 10t-43 45l-248 379l-239 -379q-21 -34 -42.5 -44.5t-64.5 -10.5h-229z" />
<glyph unicode="Y" horiz-adv-x="1196" d="M27 1311h227q39 0 52 -7.5t28 -37.5l143 -301q75 -159 121 -263h10q12 29 117 263l139 301q13 31 26.5 38t53.5 7h225q0 -33 -10 -56l-411 -841v-414h-297v414l-412 841q-12 27 -12 56z" />
<glyph unicode="Z" horiz-adv-x="1052" d="M41 0v166q0 62 35 108l573 785h-575v252h917v-176q0 -74 -33 -115l-563 -770h617v-250h-971z" />
<glyph unicode="[" horiz-adv-x="722" d="M111 -94v1499q0 111 106 111h410v-64q0 -36 -21 -48.5t-65 -12.5h-133v-1471h219v-63q0 -36 -21 -49t-65 -13h-324q-106 0 -106 111z" />
<glyph unicode="\" horiz-adv-x="997" d="M43 1311h55q62 0 98.5 -27.5t71.5 -85.5l686 -1198h-55q-63 0 -99 27.5t-69 85.5z" />
<glyph unicode="]" horiz-adv-x="722" d="M96 -80h221v1471h-135q-44 0 -65 12.5t-21 48.5v64h410q106 0 106 -111v-1499q0 -111 -106 -111h-324q-44 0 -65 13t-21 49v63z" />
<glyph unicode="^" horiz-adv-x="698" d="M66 1098q0 20 8 30l172 209q18 21 31 28t32 7h78q21 0 34.5 -7t31.5 -28l172 -209q8 -10 8 -30h-117q-21 0 -33.5 5.5t-36.5 24.5l-96 82l-98 -82q-22 -19 -35 -24.5t-33 -5.5h-118z" />
<glyph unicode="_" horiz-adv-x="1146" d="M100 -104q0 104 107 104h837v-197h-944v93z" />
<glyph unicode="`" horiz-adv-x="516" d="M66 1358q0 14 24 14h117q19 0 32 -7t31 -28l172 -209q9 -11 9 -30h-119q-23 0 -35.5 5t-32.5 25l-176 193q-22 22 -22 37z" />
<glyph unicode="a" horiz-adv-x="1062" d="M70 281q0 92 44.5 158.5t129 105t186.5 58.5t236 26v63q0 74 -50 105.5t-145 31.5h-326v78q0 35 19 59t48 37t82.5 20.5t102 9t127.5 1.5q204 0 314 -84.5t110 -244.5v-705h-162q-62 0 -91 28t-29 70v17q-119 -125 -289 -125q-143 0 -225 79t-82 212zM365 328 q0 -119 145 -119q93 0 156 49v213q-163 -1 -232 -35t-69 -108z" />
<glyph unicode="b" horiz-adv-x="1101" d="M115 0v1239q0 113 108 113h172v-443q48 53 118 89t151 36q368 0 368 -522t-368 -522q-81 0 -151 36t-118 89v-17q0 -42 -30 -70t-95 -28h-155zM395 258q76 -51 160 -51q103 0 144.5 73t41.5 232q0 160 -42 234.5t-144 74.5q-84 0 -160 -51v-512z" />
<glyph unicode="c" horiz-adv-x="927" d="M70 512q0 522 473 522q133 0 207 -13t104.5 -41.5t30.5 -78.5v-72h-312q-77 0 -121 -24t-68 -94t-24 -199t24 -199t68 -94t121 -24h312v-74q0 -73 -73.5 -102t-268.5 -29q-473 0 -473 522z" />
<glyph unicode="d" horiz-adv-x="1101" d="M70 512q0 249 89.5 385.5t278.5 136.5q81 0 151 -36t118 -89v344q0 42 28 70.5t92 28.5h160v-1352h-158q-64 0 -93 28t-29 70v17q-48 -53 -118 -89t-151 -36q-189 0 -278.5 136.5t-89.5 385.5zM360 512q0 -159 42 -233t145 -74q88 0 160 51v512q-72 51 -160 51 q-103 0 -145 -74t-42 -233z" />
<glyph unicode="e" horiz-adv-x="1054" d="M70 512q0 113 25 203.5t78.5 164t148.5 114t225 40.5q209 0 323.5 -105.5t114.5 -295.5q0 -90 -12 -201h-613q0 -131 54.5 -184t167.5 -53h356v-74q0 -73 -89.5 -102t-305.5 -29q-104 0 -185.5 27t-135 73.5t-88.5 114t-49.5 143t-14.5 164.5zM360 612h342q3 27 3 64 q0 73 -35.5 120.5t-120.5 47.5q-92 0 -137.5 -54t-51.5 -178z" />
<glyph unicode="f" horiz-adv-x="706" d="M39 821v154l133 49v55q0 38 1.5 62.5t7.5 58.5t17 56t32 46t51 38t75 23t103 9q109 0 157 -30.5t48 -102.5v-72h-142q-41 0 -54 -19.5t-13 -68.5v-55h192v-203h-192v-821h-283v821h-133z" />
<glyph unicode="g" horiz-adv-x="1101" d="M70 530q0 504 368 504q81 0 151 -36t118 -89v17q0 42 28 70t92 28h160v-936q0 -62 -12.5 -117t-45 -109t-82.5 -92.5t-131.5 -62.5t-185.5 -24q-216 0 -299.5 29t-83.5 102v73h345q112 0 163.5 50t51.5 186v29q-47 -55 -117 -91t-152 -36q-368 0 -368 505zM360 530 q0 -149 42 -215.5t145 -66.5q91 0 160 49v473q-72 51 -160 51q-102 0 -144.5 -71.5t-42.5 -219.5z" />
<glyph unicode="h" d="M115 0v1239q0 113 108 113h172v-443q119 125 291 125q158 0 236.5 -89.5t78.5 -237.5v-707h-282v690q0 72 -39.5 101.5t-112.5 29.5q-92 0 -172 -53v-768h-280z" />
<glyph unicode="i" horiz-adv-x="509" d="M115 0v1024h172q108 0 108 -111v-913h-280zM115 1114v127q0 55 25 83t81 28h174v-238h-280z" />
<glyph unicode="j" horiz-adv-x="509" d="M-84 -113h123q45 0 59.5 21.5t14.5 71.5v1044h176q106 0 106 -111v-938q0 -38 -1.5 -63t-7 -59t-16.5 -55.5t-32 -45.5t-50 -37.5t-73.5 -22.5t-101.5 -9q-106 0 -151.5 29.5t-45.5 101.5v73zM113 1114v127q0 111 106 111h176v-238h-282z" />
<glyph unicode="k" horiz-adv-x="1107" d="M115 0v1241q0 55 25 83t81 28h174v-793l330 410q26 35 45.5 45t60.5 10h236q0 -26 -20 -53l-369 -432l375 -488q18 -24 18 -51h-262q-42 0 -61.5 14t-49.5 58l-303 401v-473h-280z" />
<glyph unicode="l" horiz-adv-x="509" d="M115 0v1241q0 55 25 83t81 28h174v-1352h-280z" />
<glyph unicode="m" horiz-adv-x="1718" d="M115 0v1024h159q64 0 92.5 -28t28.5 -70v-17q119 125 291 125q198 0 275 -137q158 137 333 137q159 0 235.5 -88t76.5 -237v-709h-283v690q0 72 -38 101.5t-111 29.5q-39 0 -89.5 -15.5t-89.5 -39.5q4 -18 4 -61v-705h-280v690q0 71 -39.5 101t-112.5 30q-92 0 -172 -53 v-768h-280z" />
<glyph unicode="n" d="M115 0v1024h159q64 0 92.5 -27t28.5 -67v-21q119 125 291 125q158 0 236.5 -89.5t78.5 -237.5v-707h-282v690q0 72 -39.5 101.5t-112.5 29.5q-92 0 -172 -53v-768h-280z" />
<glyph unicode="o" horiz-adv-x="1087" d="M70 512q0 89 14.5 164.5t49 143t88.5 114t136 73.5t187 27q131 0 225 -40.5t147 -114t77 -164t24 -203.5t-24 -203.5t-77 -164t-147 -114t-225 -40.5q-105 0 -187 27t-136 73.5t-88.5 114t-49 143t-14.5 164.5zM360 512q0 -170 39.5 -252t145.5 -82q104 0 143 82.5 t39 251.5t-39 250.5t-143 81.5q-106 0 -145.5 -81.5t-39.5 -250.5z" />
<glyph unicode="p" horiz-adv-x="1101" d="M115 -307v1331h159q64 0 92.5 -28t28.5 -70v-17q48 53 118 89t151 36q368 0 368 -522t-368 -522q-81 0 -151 36t-118 89v-422h-280zM395 258q76 -51 160 -51q103 0 144.5 73t41.5 232q0 160 -42 234.5t-144 74.5q-84 0 -160 -51v-512z" />
<glyph unicode="q" horiz-adv-x="1101" d="M70 512q0 522 368 522q81 0 151 -36t118 -89v17q0 42 28 70t92 28h160v-1331h-280v422q-48 -53 -118 -89t-151 -36q-368 0 -368 522zM360 512q0 -159 42 -232t145 -73q84 0 160 51v512q-76 51 -160 51q-103 0 -145 -75t-42 -234z" />
<glyph unicode="r" horiz-adv-x="739" d="M115 0v1024h159q107 0 121 -131q97 141 248 141q72 0 72 -51v-223h-49q-107 0 -165.5 -13.5t-105.5 -39.5v-707h-280z" />
<glyph unicode="s" horiz-adv-x="954" d="M70 102v93h387q135 0 135 79q0 27 -28 49.5t-73.5 41.5t-100 39.5t-109 49.5t-100 65.5t-73.5 93.5t-28 128q0 139 105 216t292 77q60 0 99 -1t83.5 -5t72 -13t51.5 -22.5t35 -35t11 -50.5v-78h-346q-52 0 -81 -18t-29 -49q0 -29 28 -52t73 -40.5t99.5 -37t109 -46.5 t99.5 -62.5t73 -92t28 -128.5q0 -53 -13.5 -98t-45 -85.5t-81 -68.5t-125 -44.5t-172.5 -16.5h-5h-72t-66.5 1.5t-64.5 4.5t-54 8t-48.5 13.5t-34 20t-24.5 27.5t-7 37z" />
<glyph unicode="t" horiz-adv-x="714" d="M39 821v154l133 49l107 164q26 36 43 48.5t49 12.5h84v-225h215v-203h-215v-534q0 -51 13 -71.5t54 -20.5h148v-70q0 -71 -50.5 -102t-158.5 -31q-58 0 -103 9t-75 23t-51.5 38t-33 46.5t-17.5 56t-7.5 59t-1.5 63.5v534h-133z" />
<glyph unicode="u" d="M115 317v707h280v-692q0 -129 156 -129q88 0 168 53v768h282v-1024h-161q-64 0 -92.5 27t-28.5 67v21q-119 -125 -287 -125q-159 0 -238 89.5t-79 237.5z" />
<glyph unicode="v" horiz-adv-x="1105" d="M41 1024h223q30 0 42 -2t22 -11.5t16 -31.5l203 -692h8l205 692q6 22 16 31.5t22 11.5t42 2h225q0 -29 -6 -49l-299 -932q-7 -23 -20.5 -33.5t-27 -12t-44.5 -1.5h-236q-31 0 -44.5 1.5t-27 12t-20.5 33.5l-293 932q-6 23 -6 49z" />
<glyph unicode="w" horiz-adv-x="1656" d="M41 1024h223q30 0 42.5 -2t22.5 -11.5t15 -31.5l180 -680h8l158 680q5 22 15 31.5t22.5 11.5t42.5 2h111q30 0 42.5 -2t22.5 -11.5t15 -31.5l159 -680h10l181 680q5 22 15 31.5t22.5 11.5t42.5 2h225q0 -22 -6 -49l-281 -932q-5 -17 -12.5 -27t-21.5 -14t-25 -5t-35 -1 h-174q-24 0 -35.5 1t-25.5 5t-21.5 14t-11.5 27l-144 539l-139 -539q-4 -14 -10 -23t-12.5 -14t-19 -7t-21.5 -2.5t-29 -0.5h-174q-24 0 -35.5 1t-25.5 5t-22 14t-13 27l-275 932q-6 20 -6 49z" />
<glyph unicode="x" horiz-adv-x="1099" d="M35 0q0 30 16 51l338 475l-315 445q-17 27 -17 53h252q29 0 48 -11.5t42 -43.5l162 -232l162 232q24 33 42 44t48 11h219q0 -23 -20 -53l-307 -424l344 -496q18 -29 18 -51h-244q-41 0 -61 10.5t-43 44.5l-184 262l-185 -262q-23 -34 -43.5 -44.5t-62.5 -10.5h-209z" />
<glyph unicode="y" d="M115 346v678h280v-664q0 -131 156 -131q83 0 168 56v739h282v-936q0 -62 -12.5 -116.5t-44.5 -109t-82 -93t-131 -62.5t-186 -24q-216 0 -299.5 29t-83.5 102v73h346q110 0 160.5 50t50.5 186v20q-116 -125 -287 -125q-159 0 -238 89.5t-79 238.5z" />
<glyph unicode="z" horiz-adv-x="919" d="M35 0v106q0 60 35 107l454 616h-463v195h807v-117q0 -68 -32 -114l-449 -598h498v-195h-850z" />
<glyph unicode="{" horiz-adv-x="821" d="M96 592v125q51 27 82 74t31 90v522q0 113 106 113h410v-64q0 -36 -21 -48.5t-65 -12.5h-133v-496q0 -71 -34.5 -133t-92.5 -107q58 -45 92.5 -107t34.5 -132v-496h133q44 0 65 -12.5t21 -48.5v-64h-410q-106 0 -106 113v522q0 43 -31 90t-82 72z" />
<glyph unicode="|" horiz-adv-x="411" d="M100 -154v1508q0 110 107 110h102v-1507q0 -55 -25 -83t-81 -28h-103z" />
<glyph unicode="}" horiz-adv-x="821" d="M96 -141q0 36 21 48.5t65 12.5h135v496q0 70 34 132.5t91 106.5q-58 44 -91.5 106.5t-33.5 133.5v496h-135q-44 0 -65 12.5t-21 48.5v64h410q106 0 106 -113v-522q0 -43 31 -90t82 -74v-125q-51 -25 -82 -72t-31 -90v-522q0 -113 -106 -113h-410v64z" />
<glyph unicode="~" horiz-adv-x="722" d="M66 1116v94q0 58 27 87.5t91 29.5q56 0 167.5 -17.5t170.5 -17.5q75 0 135 35v-92q0 -60 -27 -89.5t-91 -29.5q-68 0 -185 17.5t-153 17.5q-79 0 -135 -35z" />
<glyph unicode="&#xa1;" horiz-adv-x="485" d="M104 -182v821h283v-934h-176q-56 0 -81.5 28t-25.5 85zM104 739v285h283v-172q0 -113 -106 -113h-177z" />
<glyph unicode="&#xa2;" horiz-adv-x="921" d="M66 512q0 478 399 516v90q0 111 106 111h50v-197q147 -6 205.5 -36t58.5 -95v-70h-305q-78 0 -124 -24.5t-73 -95.5t-27 -199t27 -199t73 -95.5t124 -24.5h305v-72q0 -64 -58.5 -93.5t-205.5 -35.5v-86q0 -111 -107 -111h-49v199q-399 38 -399 518z" />
<glyph unicode="&#xa3;" horiz-adv-x="1165" d="M100 0v150q0 104 115 104h47v326h-162v63q0 105 107 105h55v210q0 76 26.5 141t79.5 115t139.5 78.5t199.5 28.5q93 0 156.5 -6.5t112.5 -22.5t72 -45t23 -73v-99h-352q-83 0 -121.5 -32t-38.5 -85v-210h420v-64q0 -104 -107 -104h-313v-326h549v-150q0 -55 -27.5 -79.5 t-85.5 -24.5h-895z" />
<glyph unicode="&#xa4;" horiz-adv-x="1204" d="M43 434v64q0 104 107 104h75q51 62 123 107h-305v63q0 105 107 105h555q63 37 63 86q0 51 -38 75.5t-122 24.5h-387v113q0 83 101.5 114t314.5 31q221 0 333.5 -97t112.5 -253q0 -46 -10 -94h88v-64q0 -104 -106 -104h-74q-57 -60 -143 -107h323v-63q0 -105 -106 -105 h-551q-37 -37 -37 -74q0 -112 176 -112h444v-113q0 -145 -432 -145q-135 0 -235 30.5t-157 85t-84 122t-27 149.5q0 39 2 57h-111z" />
<glyph unicode="&#xa5;" horiz-adv-x="1216" d="M80 1311h227q40 0 52.5 -7t27.5 -38l221 -467h8l213 467q13 31 26.5 38t53.5 7h228q0 -33 -7 -49l-364 -738h313v-63q0 -105 -106 -105h-217v-356h-297v356h-322v64q0 104 107 104h205l-363 738q-6 23 -6 49z" />
<glyph unicode="&#xa6;" horiz-adv-x="411" d="M100 -154v738h209v-627q0 -55 -25 -83t-81 -28h-103zM100 727v627q0 110 107 110h102v-737h-209z" />
<glyph unicode="&#xa7;" horiz-adv-x="946" d="M47 1028q0 139 105 216t290 77q60 0 99.5 -1t85 -5t73 -12.5t52.5 -22.5t36 -35.5t11 -50.5v-76h-348q-52 0 -80.5 -18t-28.5 -49q0 -29 28 -48.5t73.5 -32.5t100 -27t109 -38t100 -59t73.5 -97t28 -145h-223q0 39 -25 67t-66 42.5t-93.5 29t-107.5 25t-107.5 31 t-93.5 47t-66 73.5t-25 109zM66 102v91h385q139 0 139 81q0 26 -28.5 44.5t-73.5 31.5t-100 27.5t-110 39.5t-100 60.5t-73.5 98t-28.5 145.5h237q0 -47 31.5 -77t81.5 -45.5t110.5 -27.5t121 -29t110.5 -42.5t81.5 -75.5t31.5 -121q0 -53 -13.5 -98t-46 -85.5t-82.5 -68.5 t-126 -44.5t-173 -16.5h-5h-72t-66 1.5t-64.5 4.5t-54 8t-48 13.5t-33.5 20t-24 27.5t-7 37z" />
<glyph unicode="&#xa8;" horiz-adv-x="776" d="M76 1114v127q0 111 108 111h129v-238h-237zM475 1114v127q0 111 105 111h131v-238h-236z" />
<glyph unicode="&#xa9;" horiz-adv-x="1507" d="M76 655q0 163 51.5 293t138.5 210t195 121.5t227 41.5h129q95 0 183.5 -25.5t167 -79.5t136.5 -131t92 -188t34 -242q0 -163 -51.5 -293t-139 -209.5t-195.5 -121t-227 -41.5h-129q-119 0 -227 41.5t-195 121t-138.5 209.5t-51.5 293zM166 655q0 -127 33 -229 t85.5 -166.5t122.5 -108t140 -61.5t141 -18h129q71 0 141 18t140 61.5t122.5 108t85.5 166.5t33 229t-33 229t-85.5 167t-122.5 108.5t-140 61.5t-141 18h-129q-71 0 -141 -18t-140 -61.5t-122.5 -108.5t-85.5 -167t-33 -229zM444 659q0 206 86 303t258 97q122 0 171 -21 t49 -71v-66h-220q-91 0 -124 -50t-33 -192t33 -191.5t124 -49.5h220v-66q0 -50 -49 -71t-171 -21q-172 0 -258 96.5t-86 302.5z" />
<glyph unicode="&#xaa;" horiz-adv-x="636" d="M41 864q0 56 26.5 96t77 63t111 35t141.5 17v35q0 82 -114 82h-197v49q0 18 7 31t23 21t33.5 13t47 7.5t54 3t64.5 0.5q124 0 190 -50.5t66 -146.5v-424h-100q-38 0 -56 17t-18 43v10q-70 -76 -172 -76q-85 0 -134.5 47.5t-49.5 126.5zM221 893q0 -70 86 -70q53 0 90 29 v125q-95 0 -135.5 -19.5t-40.5 -64.5z" />
<glyph unicode="&#xab;" horiz-adv-x="1394" d="M100 414v196l531 295q43 21 43 -14v-162l-400 -215l363 -192q37 -18 37 -64v-156zM721 414v196l528 295q10 6 19 7.5t16.5 -3t7.5 -18.5v-162l-399 -215l364 -192q35 -18 35 -64v-156z" />
<glyph unicode="&#xac;" horiz-adv-x="1525" d="M100 414v92q0 104 107 104h639v-350h-201v154h-545z" />
<glyph unicode="&#xad;" horiz-adv-x="774" d="M100 414v92q0 104 107 104h467v-196h-574z" />
<glyph unicode="&#xae;" horiz-adv-x="1507" d="M76 655q0 163 51.5 293t138.5 210t195 121.5t227 41.5h129q95 0 183.5 -25.5t167 -79.5t136.5 -131t92 -188t34 -242q0 -163 -51.5 -293t-139 -209.5t-195.5 -121t-227 -41.5h-129q-119 0 -227 41.5t-195 121t-138.5 209.5t-51.5 293zM166 655q0 -127 33 -229 t85.5 -166.5t122.5 -108t140 -61.5t141 -18h129q71 0 141 18t140 61.5t122.5 108t85.5 166.5t33 229t-33 229t-85.5 167t-122.5 108.5t-140 61.5t-141 18h-129q-71 0 -141 -18t-140 -61.5t-122.5 -108.5t-85.5 -167t-33 -229zM463 266v719q0 68 65 68h263q136 0 212 -69 t76 -185q0 -82 -40 -140.5t-115 -87.5l176 -272q12 -20 12 -33h-162q-28 0 -40.5 6t-26.5 29l-150 244h-88v-279h-182zM645 696h131q125 0 125 103q0 100 -125 100h-131v-203z" />
<glyph unicode="&#xaf;" horiz-adv-x="1146" d="M100 1024v90q0 105 107 105h837v-195h-944z" />
<glyph unicode="&#xb0;" horiz-adv-x="653" d="M41 1044q0 136 65 204.5t220 68.5q157 0 221.5 -68t64.5 -205q0 -136 -64.5 -204t-221.5 -68q-155 0 -220 68t-65 204zM221 1044q0 -95 20.5 -126t84.5 -31q65 0 85.5 31t20.5 126t-20.5 126.5t-85.5 31.5q-64 0 -84.5 -31.5t-20.5 -126.5z" />
<glyph unicode="&#xb1;" horiz-adv-x="829" d="M100 84v90q0 105 107 105h522v-195h-629zM100 565v92q0 55 28.5 80t92.5 25h94v100q0 105 107 105h92v-205h215v-197h-215v-205h-199v205h-215z" />
<glyph unicode="&#xb2;" horiz-adv-x="507" d="M16 864v82q0 55 22 104t55 82.5t71.5 65t71.5 53.5t55 45t22 43q0 52 -71 52h-203v55q0 45 52 62.5t161 17.5q111 0 168 -51.5t57 -131.5q0 -47 -28 -91t-68 -76.5t-80 -61.5t-68 -58.5t-28 -54.5h287v-83q0 -54 -60 -54h-416z" />
<glyph unicode="&#xb3;" horiz-adv-x="522" d="M14 942v49h234q94 0 94 70q0 67 -94 67h-158v132h137q47 0 69.5 13.5t22.5 47.5q0 70 -94 70h-200v51q0 46 50.5 65t157.5 19q118 0 181 -46.5t63 -138.5q0 -53 -28 -91.5t-78 -51.5q63 -15 97 -55t34 -101q0 -92 -65 -137t-185 -45q-238 0 -238 82z" />
<glyph unicode="&#xb4;" horiz-adv-x="516" d="M66 1098q0 20 8 30l172 209q18 21 31 28t32 7h117q25 0 25 -14q0 -13 -21 -37l-178 -193q-19 -20 -32 -25t-36 -5h-118z" />
<glyph unicode="&#xb6;" horiz-adv-x="1134" d="M82 877q0 198 127 316t354 118h504v-21q0 -36 -20.5 -48.5t-65.5 -12.5v-1229h-86v1229h-94v-1229h-238v444q-226 0 -353.5 118.5t-127.5 314.5z" />
<glyph unicode="&#xb7;" horiz-adv-x="483" d="M100 369v174q0 112 107 112h176v-286h-283z" />
<glyph unicode="&#xb8;" horiz-adv-x="446" d="M66 -207h73q34 0 49 9t15 30q0 22 -14 30.5t-52 8.5h-39v147h105v-69h6q91 0 131.5 -35t40.5 -84q0 -58 -51 -97.5t-133 -39.5q-62 0 -96.5 11t-34.5 44v45z" />
<glyph unicode="&#xb9;" horiz-adv-x="409" d="M14 864v82q0 55 60 55h51v381h-111v82q0 56 60 56h213v-519h108v-83q0 -54 -59 -54h-322z" />
<glyph unicode="&#xba;" horiz-adv-x="653" d="M41 1004q0 54 9 99t29.5 85.5t53 68.5t81.5 44t112 16q286 0 286 -313q0 -314 -286 -314q-78 0 -135 24.5t-89 68.5t-46.5 98.5t-14.5 122.5zM221 1004q0 -102 22 -150.5t83 -48.5q62 0 84 48.5t22 150.5t-22 150t-84 48q-61 0 -83 -48t-22 -150z" />
<glyph unicode="&#xbb;" horiz-adv-x="1394" d="M117 102v156q0 45 35 64l362 192l-397 215v162q0 35 43 14l528 -295v-196zM707 102v156q0 48 36 64l361 192l-397 215v162q0 35 41 14l530 -295v-196z" />
<glyph unicode="&#xbc;" horiz-adv-x="1259" d="M14 659v82q0 56 60 56h51v381h-111v82q0 55 60 55h213v-518h108v-84q0 -54 -59 -54h-322zM197 0l673 1198q33 59 65.5 86t88.5 27h70l-674 -1198q-31 -59 -64 -86t-90 -27h-69zM737 115v98q0 36 17 59l213 324q25 36 44.5 51t51.5 15h111l-252 -410h125l24 67 q28 58 80 58h35v-125h49v-137h-49v-115h-160v115h-289z" />
<glyph unicode="&#xbd;" horiz-adv-x="1314" d="M14 659v82q0 56 60 56h51v381h-111v82q0 55 60 55h213v-518h108v-84q0 -54 -59 -54h-322zM197 0l673 1198q33 59 65.5 86t88.5 27h70l-674 -1198q-31 -59 -64 -86t-90 -27h-69zM823 0v82q0 55 22 104t55 82.5t71.5 65t71.5 53.5t55 45t22 43q0 51 -71 51h-203v56 q0 45 52 62.5t161 17.5q111 0 168 -51.5t57 -131.5q0 -47 -28 -91t-68 -76.5t-80 -61.5t-68 -58.5t-28 -54.5h286v-84q0 -53 -59 -53h-416z" />
<glyph unicode="&#xbe;" horiz-adv-x="1329" d="M14 737v49h234q94 0 94 70q0 68 -94 68h-158v131h137q47 0 69.5 13.5t22.5 47.5q0 70 -94 70h-200v51q0 46 50.5 65t157.5 19q118 0 181 -46t63 -138q0 -53 -28 -92t-78 -52q131 -31 131 -155q0 -92 -65 -137.5t-185 -45.5q-238 0 -238 82zM266 0l674 1198q33 59 65.5 86 t88.5 27h69l-674 -1198q-31 -59 -63.5 -86t-89.5 -27h-70zM805 115v98q0 38 16 59l213 324q25 36 44.5 51t51.5 15h111l-252 -410h125l25 67q28 58 80 58h34v-125h50v-137h-50v-115h-159v115h-289z" />
<glyph unicode="&#xbf;" horiz-adv-x="980" d="M61 57q0 67 22 122t57 92t77.5 69t85 61.5t77.5 61.5t57 76.5t22 99.5h282q0 -80 -21.5 -145t-56.5 -107t-76.5 -76t-83.5 -60.5t-77 -52.5t-56.5 -59t-21.5 -73q0 -53 38.5 -85t121.5 -32h407v-99q0 -84 -104.5 -115.5t-318.5 -31.5q-218 0 -324.5 97.5t-106.5 256.5z M459 739v285h282v-172q0 -57 -25 -85t-79 -28h-178z" />
<glyph unicode="&#xc0;" horiz-adv-x="1191" d="M27 0q0 19 6 49l336 1215q9 32 28 41.5t62 9.5h276q43 0 62 -9.5t28 -41.5l334 -1215q6 -27 6 -49h-235q-43 0 -58 7.5t-24 39.5l-74 279h-358l-74 -279q-7 -32 -22 -39.5t-58 -7.5h-235zM289 1645q0 14 24 14h117q19 0 32.5 -7t31.5 -28l172 -209q8 -10 8 -31h-119 q-22 0 -35 5.5t-33 25.5l-176 193q-22 22 -22 37zM465 551h256l-123 457h-10z" />
<glyph unicode="&#xc1;" horiz-adv-x="1191" d="M27 0q0 19 6 49l336 1215q9 32 28 41.5t62 9.5h276q43 0 62 -9.5t28 -41.5l334 -1215q6 -27 6 -49h-235q-43 0 -58 7.5t-24 39.5l-74 279h-358l-74 -279q-7 -32 -22 -39.5t-58 -7.5h-235zM465 551h256l-123 457h-10zM518 1384q0 21 8 31l172 209q18 21 31.5 28t32.5 7 h117q24 0 24 -14q0 -15 -20 -37l-178 -193q-19 -20 -32 -25.5t-36 -5.5h-119z" />
<glyph unicode="&#xc2;" horiz-adv-x="1191" d="M27 0q0 19 6 49l336 1215q9 32 28 41.5t62 9.5h276q43 0 62 -9.5t28 -41.5l334 -1215q6 -27 6 -49h-235q-43 0 -58 7.5t-24 39.5l-74 279h-358l-74 -279q-7 -32 -22 -39.5t-58 -7.5h-235zM311 1384q0 21 8 31l173 209q18 21 31 28t32 7h78q21 0 34 -7t31 -28l172 -209 q9 -11 9 -31h-117q-21 0 -33.5 5.5t-36.5 25.5l-96 82l-98 -82q-22 -19 -35 -25t-33 -6h-119zM465 551h256l-123 457h-10z" />
<glyph unicode="&#xc3;" horiz-adv-x="1191" d="M27 0q0 19 6 49l336 1215q9 32 28 41.5t62 9.5h276q43 0 62 -9.5t28 -41.5l334 -1215q6 -27 6 -49h-235q-43 0 -58 7.5t-24 39.5l-74 279h-358l-74 -279q-7 -32 -22 -39.5t-58 -7.5h-235zM305 1403v94q0 58 27.5 87.5t91.5 29.5q56 0 167.5 -17.5t170.5 -17.5 q75 0 135 35v-92q0 -59 -27.5 -89t-91.5 -30q-68 0 -185 17.5t-153 17.5q-79 0 -135 -35zM465 551h256l-123 457h-10z" />
<glyph unicode="&#xc4;" horiz-adv-x="1191" d="M27 0q0 19 6 49l336 1215q9 32 28 41.5t62 9.5h276q43 0 62 -9.5t28 -41.5l334 -1215q6 -27 6 -49h-235q-43 0 -58 7.5t-24 39.5l-74 279h-358l-74 -279q-7 -32 -22 -39.5t-58 -7.5h-235zM285 1401v127q0 110 108 110h129v-237h-237zM465 551h256l-123 457h-10zM684 1401 v127q0 55 25 82.5t79 27.5h132v-237h-236z" />
<glyph unicode="&#xc5;" horiz-adv-x="1191" d="M27 0q0 19 6 49l336 1215q9 32 28 41.5t62 9.5h276q43 0 62 -9.5t28 -41.5l334 -1215q6 -27 6 -49h-235q-43 0 -58 7.5t-24 39.5l-74 279h-358l-74 -279q-7 -32 -22 -39.5t-58 -7.5h-235zM410 1524q0 157 190 157q188 0 188 -157q0 -160 -188 -160q-190 0 -190 160z M465 551h256l-123 457h-10zM537 1524q0 -43 14 -59.5t49 -16.5q34 0 48 16.5t14 59.5q0 42 -13.5 56.5t-48.5 14.5t-49 -14.5t-14 -56.5z" />
<glyph unicode="&#xc6;" horiz-adv-x="1699" d="M27 0q0 19 6 49l334 1211q8 32 28.5 41.5t63.5 9.5h1183v-144q0 -108 -116 -108h-441v-273h482v-235h-482v-301h568v-144q0 -106 -117 -106h-637q-111 0 -111 113v213h-372l-74 -279q-7 -32 -22 -39.5t-58 -7.5h-235zM465 551h323v508h-188z" />
<glyph unicode="&#xc7;" horiz-adv-x="1048" d="M78 655q0 344 143 505t430 161q201 0 281 -34.5t80 -115.5v-108h-361q-105 0 -161.5 -36t-81.5 -123t-25 -249t25 -248.5t81.5 -122.5t161.5 -36h361v-109q0 -78 -74.5 -113t-259.5 -36v-41h6q91 0 131.5 -35t40.5 -84q0 -58 -51.5 -97.5t-132.5 -39.5q-62 0 -96.5 11 t-34.5 44v45h73q35 0 49.5 8.5t14.5 30.5t-14 30.5t-52 8.5h-39v123q-248 21 -371.5 182t-123.5 479z" />
<glyph unicode="&#xc8;" horiz-adv-x="1026" d="M115 113v1085q0 113 108 113h746v-144q0 -108 -117 -108h-440v-273h481v-235h-481v-301h567v-144q0 -106 -115 -106h-641q-108 0 -108 113zM238 1645q0 14 24 14h117q19 0 32 -7t31 -28l172 -209q9 -11 9 -31h-119q-22 0 -35 5.5t-33 25.5l-176 193q-22 22 -22 37z" />
<glyph unicode="&#xc9;" horiz-adv-x="1026" d="M115 113v1085q0 113 108 113h746v-144q0 -108 -117 -108h-440v-273h481v-235h-481v-301h567v-144q0 -106 -115 -106h-641q-108 0 -108 113zM459 1384q0 21 8 31l172 209q18 21 31 28t32 7h117q25 0 25 -14q0 -13 -21 -37l-178 -193q-19 -20 -32 -25.5t-35 -5.5h-119z" />
<glyph unicode="&#xca;" horiz-adv-x="1026" d="M115 113v1085q0 113 108 113h746v-144q0 -108 -117 -108h-440v-273h481v-235h-481v-301h567v-144q0 -106 -115 -106h-641q-108 0 -108 113zM248 1384q0 21 8 31l172 209q18 21 31.5 28t32.5 7h77q21 0 34.5 -7t31.5 -28l172 -209q8 -10 8 -31h-117q-21 0 -32.5 5.5 t-36.5 25.5l-97 82l-98 -82q-22 -19 -34.5 -25t-32.5 -6h-119z" />
<glyph unicode="&#xcb;" horiz-adv-x="1026" d="M115 113v1085q0 113 108 113h746v-144q0 -108 -117 -108h-440v-273h481v-235h-481v-301h567v-144q0 -106 -115 -106h-641q-108 0 -108 113zM221 1401v127q0 110 109 110h129v-237h-238zM621 1401v127q0 55 25 82.5t79 27.5h131v-237h-235z" />
<glyph unicode="&#xcc;" horiz-adv-x="524" d="M-43 1645q0 14 25 14h116q19 0 32.5 -7t31.5 -28l172 -209q8 -10 8 -31h-119q-22 0 -34 5t-33 26l-176 193q-23 23 -23 37zM115 0v1198q0 113 108 113h189v-1311h-297z" />
<glyph unicode="&#xcd;" horiz-adv-x="524" d="M115 0v1198q0 113 108 113h189v-1311h-297zM182 1384q0 21 8 31l172 209q18 21 31.5 28t32.5 7h117q24 0 24 -14q0 -15 -20 -37l-178 -193q-19 -20 -32 -25.5t-36 -5.5h-119z" />
<glyph unicode="&#xce;" horiz-adv-x="524" d="M-35 1384q0 21 8 31l172 209q18 21 31.5 28t32.5 7h78q21 0 34 -7t31 -28l172 -209q8 -10 8 -31h-116q-21 0 -33.5 5.5t-36.5 25.5l-96 82l-98 -82q-22 -19 -35 -25t-33 -6h-119zM115 0v1198q0 113 108 113h189v-1311h-297z" />
<glyph unicode="&#xcf;" horiz-adv-x="524" d="M-63 1401v127q0 110 108 110h129v-237h-237zM115 0v1198q0 113 108 113h189v-1311h-297zM336 1401v127q0 55 25 82.5t79 27.5h131v-237h-235z" />
<glyph unicode="&#xd0;" horiz-adv-x="1339" d="M0 561v82q0 107 117 107h59v450q0 111 105 111h421q276 0 418 -158t142 -498t-142 -497.5t-418 -157.5h-421q-105 0 -105 111v450h-176zM473 250h221q64 0 110 19t81.5 63.5t53 125t17.5 197.5t-17.5 197t-53 125t-81.5 63.5t-110 18.5h-221v-309h176v-91 q0 -52 -29.5 -75t-87.5 -23h-59v-311z" />
<glyph unicode="&#xd1;" horiz-adv-x="1312" d="M115 0v1206q0 109 112 109h152q42 0 62.5 -10t41.5 -45l447 -820h8q-6 133 -6 402v469h266v-1215q0 -100 -104 -100h-160q-42 0 -63 10t-40 45l-450 819h-6q6 -162 6 -368v-502h-266zM348 1403v94q0 58 27.5 87.5t91.5 29.5q56 0 167.5 -17.5t170.5 -17.5q75 0 135 35 v-92q0 -59 -27.5 -89t-91.5 -30q-68 0 -185 17.5t-153 17.5q-79 0 -135 -35z" />
<glyph unicode="&#xd2;" horiz-adv-x="1273" d="M78 655q0 342 141.5 504t417.5 162q277 0 418 -161.5t141 -504.5q0 -342 -141 -503.5t-418 -161.5q-276 0 -417.5 161.5t-141.5 503.5zM322 1645q0 14 24 14h117q19 0 32 -7t31 -28l172 -209q9 -11 9 -31h-119q-22 0 -35 5.5t-33 25.5l-176 193q-22 22 -22 37zM383 655 q0 -231 62.5 -326.5t191.5 -95.5t191.5 95.5t62.5 326.5t-62.5 326.5t-191.5 95.5t-191.5 -95.5t-62.5 -326.5z" />
<glyph unicode="&#xd3;" horiz-adv-x="1273" d="M78 655q0 342 141.5 504t417.5 162q277 0 418 -161.5t141 -504.5q0 -342 -141 -503.5t-418 -161.5q-276 0 -417.5 161.5t-141.5 503.5zM383 655q0 -231 62.5 -326.5t191.5 -95.5t191.5 95.5t62.5 326.5t-62.5 326.5t-191.5 95.5t-191.5 -95.5t-62.5 -326.5zM530 1384 q0 20 9 31l172 209q18 21 31 28t32 7h117q24 0 24 -14q0 -15 -20 -37l-178 -193q-19 -20 -32 -25.5t-36 -5.5h-119z" />
<glyph unicode="&#xd4;" horiz-adv-x="1273" d="M78 655q0 342 141.5 504t417.5 162q277 0 418 -161.5t141 -504.5q0 -342 -141 -503.5t-418 -161.5q-276 0 -417.5 161.5t-141.5 503.5zM334 1384q0 21 8 31l172 209q18 21 31.5 28t32.5 7h77q21 0 34.5 -7t31.5 -28l172 -209q8 -10 8 -31h-117q-21 0 -32.5 5.5 t-36.5 25.5l-97 82l-98 -82q-22 -19 -34.5 -25t-32.5 -6h-119zM383 655q0 -231 62.5 -326.5t191.5 -95.5t191.5 95.5t62.5 326.5t-62.5 326.5t-191.5 95.5t-191.5 -95.5t-62.5 -326.5z" />
<glyph unicode="&#xd5;" horiz-adv-x="1273" d="M78 655q0 342 141.5 504t417.5 162q277 0 418 -161.5t141 -504.5q0 -342 -141 -503.5t-418 -161.5q-276 0 -417.5 161.5t-141.5 503.5zM324 1403v94q0 58 27 87.5t91 29.5q56 0 167.5 -17.5t170.5 -17.5q75 0 135 35v-92q0 -60 -27 -89.5t-91 -29.5q-68 0 -185 17.5 t-153 17.5q-79 0 -135 -35zM383 655q0 -231 62.5 -326.5t191.5 -95.5t191.5 95.5t62.5 326.5t-62.5 326.5t-191.5 95.5t-191.5 -95.5t-62.5 -326.5z" />
<glyph unicode="&#xd6;" horiz-adv-x="1273" d="M78 655q0 342 141.5 504t417.5 162q277 0 418 -161.5t141 -504.5q0 -342 -141 -503.5t-418 -161.5q-276 0 -417.5 161.5t-141.5 503.5zM307 1401v127q0 110 109 110h129v-237h-238zM383 655q0 -231 62.5 -326.5t191.5 -95.5t191.5 95.5t62.5 326.5t-62.5 326.5 t-191.5 95.5t-191.5 -95.5t-62.5 -326.5zM707 1401v127q0 55 25 82.5t79 27.5h131v-237h-235z" />
<glyph unicode="&#xd7;" horiz-adv-x="790" d="M139 274q-72 75 0 150l97 88l-97 90q-72 72 0 148l64 67l174 -166l172 166l139 -139l-172 -166l172 -164l-139 -137l-172 162l-174 -162z" />
<glyph unicode="&#xd8;" horiz-adv-x="1275" d="M78 655q0 342 141.5 504t417.5 162t418.5 -162t142.5 -504t-142.5 -503.5t-418.5 -161.5t-417.5 161.5t-141.5 503.5zM383 655q0 -190 51 -282l338 669q-52 35 -135 35q-129 0 -191.5 -95.5t-62.5 -326.5zM498 272q55 -39 143 -39q127 0 188.5 95.5t61.5 326.5 q0 204 -53 299z" />
<glyph unicode="&#xd9;" horiz-adv-x="1288" d="M115 459v852h297v-852q0 -120 54.5 -169.5t180.5 -49.5q125 0 177.5 49t52.5 170v852h297v-852q0 -469 -527 -469q-532 0 -532 469zM328 1645q0 14 24 14h117q19 0 32 -7t31 -28l173 -209q8 -10 8 -31h-119q-22 0 -35 5.5t-33 25.5l-176 193q-22 22 -22 37z" />
<glyph unicode="&#xda;" horiz-adv-x="1288" d="M115 459v852h297v-852q0 -120 54.5 -169.5t180.5 -49.5q125 0 177.5 49t52.5 170v852h297v-852q0 -469 -527 -469q-532 0 -532 469zM553 1384q0 21 8 31l172 209q18 21 31.5 28t32.5 7h116q25 0 25 -14q0 -15 -20 -37l-179 -193q-19 -20 -32 -25.5t-35 -5.5h-119z" />
<glyph unicode="&#xdb;" horiz-adv-x="1288" d="M115 459v852h297v-852q0 -120 54.5 -169.5t180.5 -49.5q125 0 177.5 49t52.5 170v852h297v-852q0 -469 -527 -469q-532 0 -532 469zM348 1384q0 21 8 31l172 209q18 21 31.5 28t32.5 7h78q21 0 34 -7t31 -28l172 -209q8 -10 8 -31h-116q-21 0 -33.5 5.5t-36.5 25.5 l-96 82l-98 -82q-22 -19 -35 -25t-33 -6h-119z" />
<glyph unicode="&#xdc;" horiz-adv-x="1288" d="M115 459v852h297v-852q0 -120 54.5 -169.5t180.5 -49.5q125 0 177.5 49t52.5 170v852h297v-852q0 -469 -527 -469q-532 0 -532 469zM317 1401v127q0 110 109 110h129v-237h-238zM717 1401v127q0 55 25 82.5t79 27.5h131v-237h-235z" />
<glyph unicode="&#xdd;" horiz-adv-x="1196" d="M27 1311h227q39 0 52 -7.5t28 -37.5l143 -301q75 -159 121 -263h10q12 29 117 263l139 301q13 31 26.5 38t53.5 7h225q0 -33 -10 -56l-411 -841v-414h-297v414l-412 841q-12 27 -12 56zM528 1384q0 20 9 31l172 209q18 21 31 28t32 7h117q24 0 24 -14q0 -15 -20 -37 l-178 -193q-19 -20 -32 -25.5t-36 -5.5h-119z" />
<glyph unicode="&#xde;" horiz-adv-x="1179" d="M115 0v1200q0 55 25 83t81 28h191v-273h241q232 0 357 -100t125 -291q0 -197 -124.5 -298t-357.5 -101h-241v-248h-297zM412 500h213q105 0 158 30.5t53 116.5q0 78 -54.5 109.5t-156.5 31.5h-213v-288z" />
<glyph unicode="&#xdf;" horiz-adv-x="1236" d="M39 821v154l133 49v31q0 64 21 118.5t65 100.5t122 72t183 26h68q217 0 321.5 -96t104.5 -256q0 -196 -137 -283q247 -93 247 -354q0 -184 -108 -288.5t-311 -104.5q-124 0 -175 29.5t-51 101.5v72h131q112 0 168 49t56 155q0 103 -68.5 153t-183.5 50h-66v260h27 q92 0 144 41t52 119q0 147 -161 147h-23q-67 0 -105 -36t-38 -105v-1026h-283v821h-133z" />
<glyph unicode="&#xe0;" horiz-adv-x="1062" d="M70 281q0 92 44.5 158.5t129 105t186.5 58.5t236 26v63q0 74 -50 105.5t-145 31.5h-326v78q0 35 19 59t48 37t82.5 20.5t102 9t127.5 1.5q204 0 314 -84.5t110 -244.5v-705h-162q-62 0 -91 28t-29 70v17q-119 -125 -289 -125q-143 0 -225 79t-82 212zM262 1358 q0 14 25 14h116q19 0 32.5 -7t31.5 -28l172 -209q8 -10 8 -30h-119q-22 0 -34.5 5t-32.5 25l-176 193q-23 23 -23 37zM365 328q0 -119 145 -119q93 0 156 49v213q-163 -1 -232 -35t-69 -108z" />
<glyph unicode="&#xe1;" horiz-adv-x="1062" d="M70 281q0 92 44.5 158.5t129 105t186.5 58.5t236 26v63q0 74 -50 105.5t-145 31.5h-326v78q0 35 19 59t48 37t82.5 20.5t102 9t127.5 1.5q204 0 314 -84.5t110 -244.5v-705h-162q-62 0 -91 28t-29 70v17q-119 -125 -289 -125q-143 0 -225 79t-82 212zM365 328 q0 -119 145 -119q93 0 156 49v213q-163 -1 -232 -35t-69 -108zM422 1098q0 20 8 30l172 209q18 21 31.5 28t32.5 7h116q25 0 25 -14q0 -13 -21 -37l-178 -193q-19 -20 -31.5 -25t-35.5 -5h-119z" />
<glyph unicode="&#xe2;" horiz-adv-x="1062" d="M70 281q0 92 44.5 158.5t129 105t186.5 58.5t236 26v63q0 74 -50 105.5t-145 31.5h-326v78q0 35 19 59t48 37t82.5 20.5t102 9t127.5 1.5q204 0 314 -84.5t110 -244.5v-705h-162q-62 0 -91 28t-29 70v17q-119 -125 -289 -125q-143 0 -225 79t-82 212zM240 1098q0 20 8 30 l172 209q18 21 31 28t32 7h78q21 0 34.5 -7t31.5 -28l172 -209q8 -10 8 -30h-117q-21 0 -33 5.5t-36 24.5l-97 82l-98 -82q-22 -19 -35 -24.5t-33 -5.5h-118zM365 328q0 -119 145 -119q93 0 156 49v213q-163 -1 -232 -35t-69 -108z" />
<glyph unicode="&#xe3;" horiz-adv-x="1062" d="M70 281q0 92 44.5 158.5t129 105t186.5 58.5t236 26v63q0 74 -50 105.5t-145 31.5h-326v78q0 35 19 59t48 37t82.5 20.5t102 9t127.5 1.5q204 0 314 -84.5t110 -244.5v-705h-162q-62 0 -91 28t-29 70v17q-119 -125 -289 -125q-143 0 -225 79t-82 212zM227 1116v94 q0 58 27.5 87.5t91.5 29.5q56 0 167.5 -17.5t170.5 -17.5q75 0 135 35v-92q0 -59 -27.5 -89t-91.5 -30q-68 0 -185 17.5t-153 17.5q-79 0 -135 -35zM365 328q0 -119 145 -119q93 0 156 49v213q-163 -1 -232 -35t-69 -108z" />
<glyph unicode="&#xe4;" horiz-adv-x="1062" d="M70 281q0 92 44.5 158.5t129 105t186.5 58.5t236 26v63q0 74 -50 105.5t-145 31.5h-326v78q0 35 19 59t48 37t82.5 20.5t102 9t127.5 1.5q204 0 314 -84.5t110 -244.5v-705h-162q-62 0 -91 28t-29 70v17q-119 -125 -289 -125q-143 0 -225 79t-82 212zM215 1114v127 q0 111 109 111h129v-238h-238zM365 328q0 -119 145 -119q93 0 156 49v213q-163 -1 -232 -35t-69 -108zM614 1114v127q0 111 105 111h131v-238h-236z" />
<glyph unicode="&#xe5;" horiz-adv-x="1062" d="M70 281q0 92 44.5 158.5t129 105t186.5 58.5t236 26v63q0 74 -50 105.5t-145 31.5h-326v78q0 35 19 59t48 37t82.5 20.5t102 9t127.5 1.5q204 0 314 -84.5t110 -244.5v-705h-162q-62 0 -91 28t-29 70v17q-119 -125 -289 -125q-143 0 -225 79t-82 212zM348 1237 q0 158 191 158q188 0 188 -158q0 -160 -188 -160q-191 0 -191 160zM365 328q0 -119 145 -119q93 0 156 49v213q-163 -1 -232 -35t-69 -108zM475 1237q0 -43 14.5 -59.5t49.5 -16.5q34 0 47.5 16t13.5 60q0 42 -13.5 57t-47.5 15q-35 0 -49.5 -15t-14.5 -57z" />
<glyph unicode="&#xe6;" horiz-adv-x="1650" d="M70 281q0 74 30.5 130t81.5 91.5t130 59t162 34.5t192 16v80q0 74 -50.5 105.5t-144.5 31.5h-326v78q0 35 19 59t48 37t82.5 20.5t102 9t127.5 1.5q213 0 314 -96q117 96 305 96q209 0 323.5 -105.5t114.5 -295.5q0 -90 -10 -201h-615q0 -131 54.5 -184t165.5 -53h358 v-74q0 -73 -89.5 -102t-305.5 -29q-254 0 -373 155q-155 -155 -389 -155q-143 0 -225 79t-82 212zM362 328q0 -61 39.5 -90t106.5 -29q99 0 192 70q-29 80 -32 184q-164 -3 -235 -33.5t-71 -101.5zM956 612h342q5 22 5 64q0 73 -36.5 120.5t-121.5 47.5q-92 0 -137.5 -54 t-51.5 -178z" />
<glyph unicode="&#xe7;" horiz-adv-x="927" d="M70 512q0 522 473 522q133 0 207 -13t104.5 -41.5t30.5 -78.5v-72h-312q-77 0 -121 -24t-68 -94t-24 -199t24 -199t68 -94t121 -24h312v-74q0 -70 -69.5 -100t-252.5 -31v-41h6q91 0 131.5 -35t40.5 -84q0 -58 -51 -97.5t-133 -39.5q-62 0 -96.5 11t-34.5 44v45h74 q35 0 49 8.5t14 30.5t-13.5 30.5t-49.5 8.5h-41v125q-389 40 -389 516z" />
<glyph unicode="&#xe8;" horiz-adv-x="1054" d="M70 512q0 113 25 203.5t78.5 164t148.5 114t225 40.5q209 0 323.5 -105.5t114.5 -295.5q0 -90 -12 -201h-613q0 -131 54.5 -184t167.5 -53h356v-74q0 -73 -89.5 -102t-305.5 -29q-104 0 -185.5 27t-135 73.5t-88.5 114t-49.5 143t-14.5 164.5zM227 1358q0 14 25 14h117 q19 0 32 -7t31 -28l172 -209q8 -10 8 -30h-118q-23 0 -35.5 5t-32.5 25l-176 193q-23 23 -23 37zM360 612h342q3 27 3 64q0 73 -35.5 120.5t-120.5 47.5q-92 0 -137.5 -54t-51.5 -178z" />
<glyph unicode="&#xe9;" horiz-adv-x="1054" d="M70 512q0 113 25 203.5t78.5 164t148.5 114t225 40.5q209 0 323.5 -105.5t114.5 -295.5q0 -90 -12 -201h-613q0 -131 54.5 -184t167.5 -53h356v-74q0 -73 -89.5 -102t-305.5 -29q-104 0 -185.5 27t-135 73.5t-88.5 114t-49.5 143t-14.5 164.5zM360 612h342q3 27 3 64 q0 73 -35.5 120.5t-120.5 47.5q-92 0 -137.5 -54t-51.5 -178zM440 1098q0 19 9 30l172 209q18 21 31 28t32 7h117q24 0 24 -14t-20 -37l-178 -193q-19 -20 -32 -25t-36 -5h-119z" />
<glyph unicode="&#xea;" horiz-adv-x="1054" d="M70 512q0 113 25 203.5t78.5 164t148.5 114t225 40.5q209 0 323.5 -105.5t114.5 -295.5q0 -90 -12 -201h-613q0 -131 54.5 -184t167.5 -53h356v-74q0 -73 -89.5 -102t-305.5 -29q-104 0 -185.5 27t-135 73.5t-88.5 114t-49.5 143t-14.5 164.5zM248 1098q0 20 8 30 l172 209q18 21 31.5 28t32.5 7h77q21 0 34.5 -7t31.5 -28l172 -209q8 -10 8 -30h-117q-21 0 -33 5.5t-36 24.5l-97 82l-98 -82q-22 -19 -34.5 -24.5t-32.5 -5.5h-119zM360 612h342q3 27 3 64q0 73 -35.5 120.5t-120.5 47.5q-92 0 -137.5 -54t-51.5 -178z" />
<glyph unicode="&#xeb;" horiz-adv-x="1054" d="M70 512q0 113 25 203.5t78.5 164t148.5 114t225 40.5q209 0 323.5 -105.5t114.5 -295.5q0 -90 -12 -201h-613q0 -131 54.5 -184t167.5 -53h356v-74q0 -73 -89.5 -102t-305.5 -29q-104 0 -185.5 27t-135 73.5t-88.5 114t-49.5 143t-14.5 164.5zM225 1114v127 q0 111 109 111h129v-238h-238zM360 612h342q3 27 3 64q0 73 -35.5 120.5t-120.5 47.5q-92 0 -137.5 -54t-51.5 -178zM625 1114v127q0 111 104 111h131v-238h-235z" />
<glyph unicode="&#xec;" horiz-adv-x="509" d="M-61 1358q0 14 24 14h117q19 0 32 -7t31 -28l172 -209q9 -11 9 -30h-119q-23 0 -35.5 5t-32.5 25l-176 193q-22 22 -22 37zM113 0v1024h174q108 0 108 -111v-913h-282z" />
<glyph unicode="&#xed;" horiz-adv-x="509" d="M113 0v1024h174q108 0 108 -111v-913h-282zM158 1098q0 20 8 30l172 209q18 21 31 28t32 7h117q25 0 25 -14q0 -13 -21 -37l-178 -193q-19 -20 -32 -25t-36 -5h-118z" />
<glyph unicode="&#xee;" horiz-adv-x="509" d="M-49 1098q0 20 8 30l172 209q18 21 31.5 28t32.5 7h77q21 0 34.5 -7t31.5 -28l172 -209q8 -10 8 -30h-117q-21 0 -33 5.5t-36 24.5l-96 82l-99 -82q-22 -19 -34.5 -24.5t-32.5 -5.5h-119zM113 0v1024h174q108 0 108 -111v-913h-282z" />
<glyph unicode="&#xef;" horiz-adv-x="509" d="M-72 1114v127q0 111 109 111h129v-238h-238zM113 0v1024h174q108 0 108 -111v-913h-282zM328 1114v127q0 111 104 111h131v-238h-235z" />
<glyph unicode="&#xf0;" horiz-adv-x="1093" d="M70 418q0 90 25 160.5t79 125t145.5 84t217.5 29.5q91 0 168 -14q-12 118 -59 174t-142 74v-136h-207v148h-180v108q0 117 180 142v133q0 110 109 110h98v-239q249 -24 383.5 -201.5t134.5 -497.5q0 -302 -123 -465t-364 -163q-119 0 -211 36t-146 97t-81 136t-27 159z M369 432q0 -94 46.5 -145t127.5 -51q95 0 130.5 80.5t35.5 297.5h-138q-202 0 -202 -182z" />
<glyph unicode="&#xf1;" d="M115 0v1024h159q64 0 92.5 -27t28.5 -67v-21q119 125 291 125q158 0 236.5 -89.5t78.5 -237.5v-707h-282v690q0 72 -39.5 101.5t-112.5 29.5q-92 0 -172 -53v-768h-280zM266 1116v94q0 58 27.5 87.5t91.5 29.5q56 0 167.5 -17.5t170.5 -17.5q75 0 135 35v-92 q0 -59 -27.5 -89t-91.5 -30q-68 0 -185 17.5t-153 17.5q-79 0 -135 -35z" />
<glyph unicode="&#xf2;" horiz-adv-x="1087" d="M70 512q0 89 14.5 164.5t49 143t88.5 114t136 73.5t187 27q131 0 225 -40.5t147 -114t77 -164t24 -203.5t-24 -203.5t-77 -164t-147 -114t-225 -40.5q-105 0 -187 27t-136 73.5t-88.5 114t-49 143t-14.5 164.5zM246 1358q0 14 24 14h117q19 0 32.5 -7t31.5 -28l172 -209 q8 -10 8 -30h-119q-23 0 -35.5 5t-32.5 25l-176 193q-22 22 -22 37zM360 512q0 -170 39.5 -252t145.5 -82q104 0 143 82.5t39 251.5t-39 250.5t-143 81.5q-106 0 -145.5 -81.5t-39.5 -250.5z" />
<glyph unicode="&#xf3;" horiz-adv-x="1087" d="M70 512q0 89 14.5 164.5t49 143t88.5 114t136 73.5t187 27q131 0 225 -40.5t147 -114t77 -164t24 -203.5t-24 -203.5t-77 -164t-147 -114t-225 -40.5q-105 0 -187 27t-136 73.5t-88.5 114t-49 143t-14.5 164.5zM360 512q0 -170 39.5 -252t145.5 -82q104 0 143 82.5 t39 251.5t-39 250.5t-143 81.5q-106 0 -145.5 -81.5t-39.5 -250.5zM451 1098q0 20 8 30l172 209q18 21 31 28t32 7h117q25 0 25 -14q0 -13 -21 -37l-178 -193q-19 -20 -32 -25t-36 -5h-118z" />
<glyph unicode="&#xf4;" horiz-adv-x="1087" d="M70 512q0 89 14.5 164.5t49 143t88.5 114t136 73.5t187 27q131 0 225 -40.5t147 -114t77 -164t24 -203.5t-24 -203.5t-77 -164t-147 -114t-225 -40.5q-105 0 -187 27t-136 73.5t-88.5 114t-49 143t-14.5 164.5zM258 1098q0 20 8 30l172 209q18 21 31.5 28t32.5 7h78 q21 0 34 -7t31 -28l172 -209q8 -10 8 -30h-116q-21 0 -33.5 5.5t-36.5 24.5l-96 82l-99 -82q-22 -19 -34.5 -24.5t-32.5 -5.5h-119zM360 512q0 -170 39.5 -252t145.5 -82q104 0 143 82.5t39 251.5t-39 250.5t-143 81.5q-106 0 -145.5 -81.5t-39.5 -250.5z" />
<glyph unicode="&#xf5;" horiz-adv-x="1087" d="M70 512q0 89 14.5 164.5t49 143t88.5 114t136 73.5t187 27q131 0 225 -40.5t147 -114t77 -164t24 -203.5t-24 -203.5t-77 -164t-147 -114t-225 -40.5q-105 0 -187 27t-136 73.5t-88.5 114t-49 143t-14.5 164.5zM244 1116v94q0 58 27 87.5t91 29.5q56 0 167.5 -17.5 t170.5 -17.5q76 0 136 35v-92q0 -59 -27.5 -89t-91.5 -30q-68 0 -185 17.5t-153 17.5q-79 0 -135 -35zM360 512q0 -170 39.5 -252t145.5 -82q104 0 143 82.5t39 251.5t-39 250.5t-143 81.5q-106 0 -145.5 -81.5t-39.5 -250.5z" />
<glyph unicode="&#xf6;" horiz-adv-x="1087" d="M70 512q0 89 14.5 164.5t49 143t88.5 114t136 73.5t187 27q131 0 225 -40.5t147 -114t77 -164t24 -203.5t-24 -203.5t-77 -164t-147 -114t-225 -40.5q-105 0 -187 27t-136 73.5t-88.5 114t-49 143t-14.5 164.5zM227 1114v127q0 111 109 111h129v-238h-238zM360 512 q0 -170 39.5 -252t145.5 -82q104 0 143 82.5t39 251.5t-39 250.5t-143 81.5q-106 0 -145.5 -81.5t-39.5 -250.5zM627 1114v127q0 111 104 111h131v-238h-235z" />
<glyph unicode="&#xf7;" horiz-adv-x="886" d="M100 414v92q0 104 107 104h577v-196h-684zM301 47v174q0 111 107 111h176v-285h-283zM301 692v174q0 109 107 109h176v-283h-283z" />
<glyph unicode="&#xf8;" horiz-adv-x="1087" d="M70 512q0 113 24 203.5t77 164t147 114t225 40.5t226 -40.5t148 -114t77 -164t24 -203.5t-24 -203.5t-77 -164t-148 -114t-226 -40.5t-225 40.5t-147 114t-77 164t-24 203.5zM360 512q0 -114 27 -182l256 487q-46 27 -100 27q-106 0 -144.5 -81t-38.5 -251zM440 207 q44 -29 103 -29q106 0 145 82t39 252q0 118 -29 180z" />
<glyph unicode="&#xf9;" d="M115 317v707h280v-692q0 -129 156 -129q88 0 168 53v768h282v-1024h-161q-64 0 -92.5 27t-28.5 67v21q-119 -125 -287 -125q-159 0 -238 89.5t-79 237.5zM225 1358q0 14 25 14h117q19 0 32 -7t31 -28l172 -209q8 -10 8 -30h-118q-23 0 -35.5 5t-32.5 25l-176 193 q-23 23 -23 37z" />
<glyph unicode="&#xfa;" d="M115 317v707h280v-692q0 -129 156 -129q88 0 168 53v768h282v-1024h-161q-64 0 -92.5 27t-28.5 67v21q-119 -125 -287 -125q-159 0 -238 89.5t-79 237.5zM461 1098q0 20 8 30l172 209q18 21 31.5 28t32.5 7h116q25 0 25 -14q0 -13 -21 -37l-178 -193q-19 -20 -31.5 -25 t-35.5 -5h-119z" />
<glyph unicode="&#xfb;" d="M115 317v707h280v-692q0 -129 156 -129q88 0 168 53v768h282v-1024h-161q-64 0 -92.5 27t-28.5 67v21q-119 -125 -287 -125q-159 0 -238 89.5t-79 237.5zM262 1098q0 20 8 30l172 209q18 21 31.5 28t32.5 7h78q21 0 34 -7t31 -28l172 -209q8 -10 8 -30h-116 q-21 0 -33.5 5.5t-36.5 24.5l-96 82l-98 -82q-22 -19 -35 -24.5t-33 -5.5h-119z" />
<glyph unicode="&#xfc;" d="M115 317v707h280v-692q0 -129 156 -129q88 0 168 53v768h282v-1024h-161q-64 0 -92.5 27t-28.5 67v21q-119 -125 -287 -125q-159 0 -238 89.5t-79 237.5zM238 1114v127q0 111 108 111h129v-238h-237zM637 1114v127q0 111 104 111h131v-238h-235z" />
<glyph unicode="&#xfd;" d="M115 346v678h280v-664q0 -131 156 -131q83 0 168 56v739h282v-936q0 -62 -12.5 -116.5t-44.5 -109t-82 -93t-131 -62.5t-186 -24q-216 0 -299.5 29t-83.5 102v73h346q110 0 160.5 50t50.5 186v20q-116 -125 -287 -125q-159 0 -238 89.5t-79 238.5zM467 1098q0 20 8 30 l172 209q18 21 31.5 28t32.5 7h116q25 0 25 -14q0 -13 -21 -37l-178 -193q-19 -20 -31.5 -25t-35.5 -5h-119z" />
<glyph unicode="&#xfe;" horiz-adv-x="1101" d="M115 -307v1546q0 113 108 113h172v-443q48 53 118 89t151 36q368 0 368 -522t-368 -522q-81 0 -151 36t-118 89v-422h-280zM395 258q76 -51 160 -51q103 0 144.5 73t41.5 232q0 160 -42 234.5t-144 74.5q-84 0 -160 -51v-512z" />
<glyph unicode="&#xff;" d="M115 346v678h280v-664q0 -131 156 -131q83 0 168 56v739h282v-936q0 -62 -12.5 -116.5t-44.5 -109t-82 -93t-131 -62.5t-186 -24q-216 0 -299.5 29t-83.5 102v73h346q110 0 160.5 50t50.5 186v20q-116 -125 -287 -125q-159 0 -238 89.5t-79 238.5zM238 1114v127 q0 111 108 111h129v-238h-237zM637 1114v127q0 111 104 111h131v-238h-235z" />
<glyph unicode="&#x152;" horiz-adv-x="1761" d="M78 655q0 342 138.5 499t416.5 157h1071v-148q0 -104 -115 -104h-440v-273h479v-235h-479v-301h565v-146q0 -104 -115 -104h-966q-278 0 -416.5 156.5t-138.5 498.5zM383 655q0 -157 29 -247t81.5 -124t139.5 -34h219v809h-219q-87 0 -139.5 -34t-81.5 -123.5t-29 -246.5 z" />
<glyph unicode="&#x153;" horiz-adv-x="1718" d="M70 512q0 89 14.5 164.5t49 143t88 114t135 73.5t186.5 27q219 0 334 -125q118 125 333 125q209 0 324 -105.5t115 -295.5q0 -79 -11 -201h-614q0 -131 54 -184t165 -53h359v-74q0 -73 -90 -102t-306 -29q-219 0 -332 123q-113 -123 -331 -123q-105 0 -186.5 27 t-135 73.5t-88 114t-49 143t-14.5 164.5zM360 512q0 -169 39.5 -251.5t143.5 -82.5q55 0 91.5 22t56 67.5t27 103t7.5 141.5q0 170 -38 251t-144 81q-104 0 -143.5 -81.5t-39.5 -250.5zM1024 612h342q4 36 4 64q0 73 -36.5 120.5t-121.5 47.5q-92 0 -137 -54t-51 -178z" />
<glyph unicode="&#x178;" horiz-adv-x="1196" d="M27 1311h227q39 0 52 -7.5t28 -37.5l143 -301q75 -159 121 -263h10q12 29 117 263l139 301q13 31 26.5 38t53.5 7h225q0 -33 -10 -56l-411 -841v-414h-297v414l-412 841q-12 27 -12 56zM281 1401v127q0 110 108 110h129v-237h-237zM680 1401v127q0 55 25 82.5t79 27.5 h131v-237h-235z" />
<glyph unicode="&#x2c6;" horiz-adv-x="698" d="M66 1098q0 20 8 30l172 209q18 21 31 28t32 7h78q21 0 34.5 -7t31.5 -28l172 -209q8 -10 8 -30h-117q-21 0 -33.5 5.5t-36.5 24.5l-96 82l-98 -82q-22 -19 -35 -24.5t-33 -5.5h-118z" />
<glyph unicode="&#x2dc;" horiz-adv-x="722" d="M66 1116v94q0 58 27 87.5t91 29.5q56 0 167.5 -17.5t170.5 -17.5q75 0 135 35v-92q0 -60 -27 -89.5t-91 -29.5q-68 0 -185 17.5t-153 17.5q-79 0 -135 -35z" />
<glyph unicode="&#x2000;" horiz-adv-x="840" />
<glyph unicode="&#x2001;" horiz-adv-x="1681" />
<glyph unicode="&#x2002;" horiz-adv-x="840" />
<glyph unicode="&#x2003;" horiz-adv-x="1681" />
<glyph unicode="&#x2004;" horiz-adv-x="560" />
<glyph unicode="&#x2005;" horiz-adv-x="420" />
<glyph unicode="&#x2006;" horiz-adv-x="280" />
<glyph unicode="&#x2007;" horiz-adv-x="280" />
<glyph unicode="&#x2008;" horiz-adv-x="210" />
<glyph unicode="&#x2009;" horiz-adv-x="336" />
<glyph unicode="&#x200a;" horiz-adv-x="93" />
<glyph unicode="&#x2010;" horiz-adv-x="774" d="M100 414v92q0 104 107 104h467v-196h-574z" />
<glyph unicode="&#x2011;" horiz-adv-x="774" d="M100 414v92q0 104 107 104h467v-196h-574z" />
<glyph unicode="&#x2012;" horiz-adv-x="774" d="M100 414v92q0 104 107 104h467v-196h-574z" />
<glyph unicode="&#x2013;" horiz-adv-x="1146" d="M100 414v92q0 104 107 104h837v-196h-944z" />
<glyph unicode="&#x2014;" horiz-adv-x="1591" d="M100 414v92q0 104 107 104h1282v-196h-1389z" />
<glyph unicode="&#x2018;" horiz-adv-x="485" d="M66 879l100 393q9 39 67 39h152l-49 -385q-5 -47 -55 -47h-215z" />
<glyph unicode="&#x2019;" horiz-adv-x="485" d="M66 879l47 385q8 47 57 47h215l-102 -396q-11 -36 -68 -36h-149z" />
<glyph unicode="&#x201a;" horiz-adv-x="485" d="M66 -152l47 385q8 48 57 48h215l-102 -396q-11 -37 -68 -37h-149z" />
<glyph unicode="&#x201c;" horiz-adv-x="890" d="M66 879l100 393q9 39 67 39h152l-49 -385q-5 -47 -55 -47h-215zM471 879l100 393q9 39 68 39h149l-47 -385q-5 -47 -55 -47h-215z" />
<glyph unicode="&#x201d;" horiz-adv-x="890" d="M66 879l47 385q8 47 57 47h215l-102 -396q-11 -36 -68 -36h-149zM471 879l47 385q5 47 57 47h213l-100 -396q-9 -36 -67 -36h-150z" />
<glyph unicode="&#x201e;" horiz-adv-x="890" d="M66 -152l47 385q8 48 57 48h215l-102 -396q-11 -37 -68 -37h-149zM471 -152l47 385q3 25 19 36.5t38 11.5h213l-100 -396q-9 -37 -67 -37h-150z" />
<glyph unicode="&#x2022;" horiz-adv-x="532" d="M100 348v211q0 111 107 111h223v-209q0 -57 -25 -85t-81 -28h-224z" />
<glyph unicode="&#x2026;" horiz-adv-x="1456" d="M100 0v172q0 113 107 113h176v-285h-283zM588 0v172q0 57 25 85t81 28h174v-285h-280zM1073 0v172q0 57 25.5 85t81.5 28h176v-285h-283z" />
<glyph unicode="&#x202f;" horiz-adv-x="336" />
<glyph unicode="&#x2039;" horiz-adv-x="774" d="M100 414v196l531 295q43 21 43 -14v-162l-400 -215l363 -192q37 -18 37 -64v-156z" />
<glyph unicode="&#x203a;" horiz-adv-x="774" d="M100 102v156q0 46 37 64l363 192l-400 215v162q0 35 43 14l531 -295v-196z" />
<glyph unicode="&#x205f;" horiz-adv-x="420" />
<glyph unicode="&#x20ac;" horiz-adv-x="1232" d="M43 434v64q0 104 107 104h108v107h-215v63q0 105 107 105h126q41 228 177 336t372 108q202 0 283.5 -34.5t81.5 -115.5v-96h-365q-114 0 -175.5 -45.5t-84.5 -152.5h422v-64q0 -104 -106 -104h-332v-107h438v-63q0 -105 -106 -105h-316q23 -108 84 -153t176 -45h365v-97 q0 -81 -81 -115t-284 -34q-236 0 -372 107.5t-177 336.5h-233z" />
<glyph unicode="&#x2122;" horiz-adv-x="1570" d="M76 1157v90q0 64 69 64h473v-90q0 -64 -67 -64h-113v-633h-182v633h-180zM698 524v729q0 27 17.5 43.5t50.5 16.5h96q27 0 39.5 -5.5t22.5 -27.5l176 -340l166 340q10 22 22 27.5t41 5.5h96q68 0 68 -66v-723h-164v295q0 123 6 219h-6l-178 -362q-9 -19 -19 -25t-36 -6 q-22 0 -33.5 6.5t-20.5 24.5l-178 362h-4q2 -96 2 -219v-295h-164z" />
<glyph unicode="&#x25fc;" horiz-adv-x="1024" d="M0 0v1024h1024v-1024h-1024z" />
</font>
</defs>
</svg>
